<svg xmlns="http://www.w3.org/2000/svg" width="278.798" height="271.709" viewBox="0 0 278.798 271.709">
  <path id="Path_54148" data-name="Path 54148" d="M1993.362-748.391a136.044,136.044,0,0,1-9.774,10.2,1.254,1.254,0,0,1-.863.342,1.258,1.258,0,0,1-.918-.4,1.26,1.26,0,0,1,.055-1.781,133.733,133.733,0,0,0,9.591-10.014,1.262,1.262,0,0,1,1.778-.131A1.261,1.261,0,0,1,1993.362-748.391Zm-71.892,40.8a132.258,132.258,0,0,1-13.646,2.436,1.261,1.261,0,0,0-1.095,1.407,1.261,1.261,0,0,0,1.25,1.105,1.326,1.326,0,0,0,.157-.01,134.518,134.518,0,0,0,13.908-2.484,1.259,1.259,0,0,0,.94-1.513A1.259,1.259,0,0,0,1921.47-707.589Zm26.143-9.1a131.986,131.986,0,0,1-12.832,5.243,1.261,1.261,0,0,0-.776,1.6,1.262,1.262,0,0,0,1.19.846,1.242,1.242,0,0,0,.415-.071,134.062,134.062,0,0,0,13.078-5.343,1.261,1.261,0,0,0,.6-1.678A1.261,1.261,0,0,0,1947.614-716.691Zm23.667-14.372a132.628,132.628,0,0,1-11.457,7.806,1.26,1.26,0,0,0-.423,1.731,1.259,1.259,0,0,0,1.078.607,1.255,1.255,0,0,0,.653-.183,135.378,135.378,0,0,0,11.675-7.956,1.26,1.26,0,0,0,.24-1.766A1.258,1.258,0,0,0,1971.281-731.063Zm11.535-202.466a1.259,1.259,0,0,0,.036,1.781A133.858,133.858,0,0,1,1993.7-920a1.258,1.258,0,0,0,.977.462,1.254,1.254,0,0,0,.8-.284,1.26,1.26,0,0,0,.178-1.773,136.21,136.21,0,0,0-11.053-11.969A1.258,1.258,0,0,0,1982.816-933.53Zm-70.453-33.384a1.256,1.256,0,0,0,.2.016,1.261,1.261,0,0,0,1.243-1.061,1.26,1.26,0,0,0-1.045-1.444,135.82,135.82,0,0,0-16.214-1.6,1.251,1.251,0,0,0-1.308,1.211,1.26,1.26,0,0,0,1.211,1.307A133.285,133.285,0,0,1,1912.363-966.914Zm58.309,24.806a1.257,1.257,0,0,0,.757.252,1.259,1.259,0,0,0,1.009-.5,1.261,1.261,0,0,0-.25-1.765,135.383,135.383,0,0,0-13.59-8.989,1.261,1.261,0,0,0-1.722.46,1.261,1.261,0,0,0,.461,1.723A132.935,132.935,0,0,1,1970.672-942.108Zm-27.146-15.864a1.262,1.262,0,0,0,1.16-.767,1.261,1.261,0,0,0-.666-1.654,134.189,134.189,0,0,0-15.355-5.458,1.257,1.257,0,0,0-1.56.861,1.26,1.26,0,0,0,.862,1.56,131.812,131.812,0,0,1,15.065,5.356A1.262,1.262,0,0,0,1943.527-957.972Zm-79.148-7.9a1.282,1.282,0,0,0,.254-.026,132.762,132.762,0,0,1,15.83-2.25,1.262,1.262,0,0,0,1.155-1.359,1.264,1.264,0,0,0-1.359-1.154,135.263,135.263,0,0,0-16.131,2.294,1.26,1.26,0,0,0-.983,1.487A1.261,1.261,0,0,0,1864.379-965.872ZM1756.8-827.774a1.26,1.26,0,0,0,1.256,1.181c.027,0,.053,0,.081,0a1.26,1.26,0,0,0,1.178-1.337c-.176-2.789-.264-5.623-.263-8.424,0-2.611.076-5.25.228-7.844a1.26,1.26,0,0,0-1.185-1.332,1.247,1.247,0,0,0-1.332,1.184c-.155,2.643-.233,5.332-.233,7.992C1756.533-833.5,1756.624-830.616,1756.8-827.774Zm3.057,14.975a1.261,1.261,0,0,0-1.006,1.471,134.293,134.293,0,0,0,4.063,16.071,1.26,1.26,0,0,0,1.2.877,1.278,1.278,0,0,0,.385-.06,1.26,1.26,0,0,0,.816-1.585,131.99,131.99,0,0,1-3.986-15.768A1.261,1.261,0,0,0,1759.86-812.8Zm26.4-105.972a1.257,1.257,0,0,0,.787.276,1.257,1.257,0,0,0,.985-.472,133.338,133.338,0,0,1,10.927-12.048,1.261,1.261,0,0,0,.022-1.782,1.261,1.261,0,0,0-1.782-.023,136.154,136.154,0,0,0-11.135,12.278A1.261,1.261,0,0,0,1786.259-918.771Zm-21.937,41.047a1.258,1.258,0,0,0-1.581.822,134.227,134.227,0,0,0-3.993,16.092,1.26,1.26,0,0,0,1.012,1.467,1.312,1.312,0,0,0,.229.021,1.261,1.261,0,0,0,1.238-1.034,131.745,131.745,0,0,1,3.918-15.788A1.26,1.26,0,0,0,1764.322-877.724Zm4.994-12.981a1.262,1.262,0,0,0,.524.115,1.261,1.261,0,0,0,1.147-.737,132.447,132.447,0,0,1,7.67-14.344,1.261,1.261,0,0,0-.411-1.735,1.261,1.261,0,0,0-1.734.411,134.91,134.91,0,0,0-7.817,14.62A1.26,1.26,0,0,0,1769.316-890.705Zm50.514-68.187H1906.5a13.094,13.094,0,0,1,13.08,13.079v65.989a13.094,13.094,0,0,1-13.08,13.079h-11.543v16.587a5.032,5.032,0,0,1-2.542,4.4,5.075,5.075,0,0,1-2.541.688,5.071,5.071,0,0,1-2.542-.689l-36.326-20.988h-31.179a13.094,13.094,0,0,1-13.079-13.079v-65.989A13.094,13.094,0,0,1,1819.831-958.892Zm97.23,13.079a10.571,10.571,0,0,0-10.559-10.559h-86.672a10.57,10.57,0,0,0-10.558,10.559v65.989a10.571,10.571,0,0,0,10.558,10.559h31.517a1.263,1.263,0,0,1,.63.169l36.618,21.157a2.534,2.534,0,0,0,2.561,0,2.535,2.535,0,0,0,1.281-2.218v-16.587h-12.364a1.261,1.261,0,0,1-1.261-1.26,1.261,1.261,0,0,1,1.261-1.26H1906.5a10.571,10.571,0,0,0,10.559-10.559Zm-6.343,26.593a26.9,26.9,0,0,1-26.868,26.868,26.727,26.727,0,0,1-16.259-5.5,26.909,26.909,0,0,1-25.107,17.316,26.9,26.9,0,0,1-26.868-26.868,26.9,26.9,0,0,1,26.868-26.868,26.727,26.727,0,0,1,16.26,5.5,26.909,26.909,0,0,1,25.107-17.316A26.9,26.9,0,0,1,1910.718-919.22Zm-2.521,0a24.375,24.375,0,0,0-24.347-24.348,24.385,24.385,0,0,0-23.053,16.533,26.789,26.789,0,0,1,8.555,19.634,26.8,26.8,0,0,1-.931,7,24.231,24.231,0,0,0,15.429,5.529A24.375,24.375,0,0,0,1908.2-919.22ZM1866.831-907.4a24.375,24.375,0,0,0-24.347-24.348,24.375,24.375,0,0,0-24.347,24.348,24.375,24.375,0,0,0,24.347,24.348A24.375,24.375,0,0,0,1866.831-907.4Zm-10.558-1.26a1.26,1.26,0,0,0-1.26,1.26,12.543,12.543,0,0,1-12.529,12.529,12.543,12.543,0,0,1-12.528-12.529,1.261,1.261,0,0,0-1.26-1.26,1.261,1.261,0,0,0-1.26,1.26,15.066,15.066,0,0,0,15.049,15.049,15.066,15.066,0,0,0,15.05-15.049A1.261,1.261,0,0,0,1856.272-908.661Zm-8.155-8.589a2.248,2.248,0,0,1,2.246-2.246,2.248,2.248,0,0,1,2.245,2.246,2.247,2.247,0,0,1-2.245,2.245A2.248,2.248,0,0,1,1848.117-917.25Zm1.97,0a.276.276,0,0,0,.276.275.275.275,0,0,0,.275-.275.275.275,0,0,0-.275-.275A.276.276,0,0,0,1850.087-917.25Zm-17.729,0a2.248,2.248,0,0,1,2.246-2.246,2.248,2.248,0,0,1,2.245,2.246,2.247,2.247,0,0,1-2.245,2.245A2.248,2.248,0,0,1,1832.359-917.25Zm1.97,0a.276.276,0,0,0,.276.275.275.275,0,0,0,.275-.275.275.275,0,0,0-.275-.275A.276.276,0,0,0,1834.328-917.25Zm49.521-5.2a15.028,15.028,0,0,0-11.2,4.9,1.262,1.262,0,0,0,.1,1.781,1.261,1.261,0,0,0,1.78-.1,12.339,12.339,0,0,1,9.324-4.066,12.542,12.542,0,0,1,12.528,12.528,1.26,1.26,0,0,0,1.26,1.26,1.261,1.261,0,0,0,1.261-1.26A15.066,15.066,0,0,0,1883.85-922.449Zm5.633-6.62a2.247,2.247,0,0,1,2.246-2.245,2.247,2.247,0,0,1,2.245,2.245,2.248,2.248,0,0,1-2.245,2.246A2.248,2.248,0,0,1,1889.483-929.069Zm1.97,0a.276.276,0,0,0,.276.275.275.275,0,0,0,.275-.275.275.275,0,0,0-.275-.274A.276.276,0,0,0,1891.453-929.069Zm-17.728,0a2.247,2.247,0,0,1,2.246-2.245,2.247,2.247,0,0,1,2.245,2.245,2.248,2.248,0,0,1-2.245,2.246A2.248,2.248,0,0,1,1873.725-929.069Zm1.97,0a.276.276,0,0,0,.276.275.275.275,0,0,0,.275-.275.275.275,0,0,0-.275-.274A.276.276,0,0,0,1875.695-929.069Zm-67.672,164.917L1794.1-752.092a3.543,3.543,0,0,1-2.325.878,3.592,3.592,0,0,1-1.494-.329,3.532,3.532,0,0,1-2.087-3.247c0-.042,0-.083.006-.125l1.527-15.352a.4.4,0,0,0-.1-.309.4.4,0,0,0-.3-.133,12.905,12.905,0,0,1-9.559-4.169c-2.335-2.518-4.986-7.284-4.365-15.7v-27.893a17.3,17.3,0,0,1,17.277-17.277,1.261,1.261,0,0,1,1.261,1.26,1.261,1.261,0,0,1-1.261,1.26,14.773,14.773,0,0,0-14.756,14.756v27.939c0,.032,0,.063,0,.095-.567,7.538,1.7,11.688,3.7,13.844a10.412,10.412,0,0,0,7.711,3.364,2.93,2.93,0,0,1,2.167.961,2.929,2.929,0,0,1,.741,2.251l-1.52,15.279a1.033,1.033,0,0,0,.613.9,1.033,1.033,0,0,0,1.122-.161l21.384-18.518a2.921,2.921,0,0,1,1.914-.713h37.6a14.773,14.773,0,0,0,14.756-14.757v-30.485a14.773,14.773,0,0,0-14.756-14.756,1.26,1.26,0,0,1-1.26-1.26,1.26,1.26,0,0,1,1.26-1.26,17.3,17.3,0,0,1,17.277,17.277v30.485a17.171,17.171,0,0,1-1.389,6.78h15.284a18.645,18.645,0,0,1,18.624,18.623v32.608a13.822,13.822,0,0,1-13.807,13.806.472.472,0,0,0-.357.161.471.471,0,0,0-.117.373l1.48,12.615a1.225,1.225,0,0,1,.009.147,3.532,3.532,0,0,1-2.086,3.247,3.6,3.6,0,0,1-1.495.329,3.54,3.54,0,0,1-2.325-.877l-17.872-15.872a.475.475,0,0,0-.317-.121h-39.711a18.644,18.644,0,0,1-18.624-18.623v-27.791A12.773,12.773,0,0,1,1808.023-764.153Zm3.436-2.975a11.2,11.2,0,0,0-1.02,4.545v27.791a16.121,16.121,0,0,0,16.1,16.1h39.711a3,3,0,0,1,1.991.756l17.86,15.863a1.018,1.018,0,0,0,1.11.151,1.033,1.033,0,0,0,.611-.893l-1.471-12.529a3,3,0,0,1,.738-2.342,3,3,0,0,1,2.24-1,11.3,11.3,0,0,0,11.286-11.286v-32.608a16.121,16.121,0,0,0-16.1-16.1H1867.88a17.262,17.262,0,0,1-14.537,7.977h-37.6a.4.4,0,0,0-.263.1Zm25.906,27.972c-6.8-6.8-8.775-11.462-7.327-17.253a14,14,0,0,1,10.206-10.383c5.342-1.5,10.776,1.144,14.385,4.353,3.615-3.21,9.05-5.85,14.385-4.353a14,14,0,0,1,10.206,10.383c1.317,5.268.527,9.4-7.443,17.372l-15.874,14a1.924,1.924,0,0,1-1.274.482,1.925,1.925,0,0,1-1.275-.482Zm1.726-1.836,15.538,13.719,15.422-13.6c7.775-7.779,7.713-10.962,6.722-14.924a11.408,11.408,0,0,0-8.442-8.567c-4.712-1.322-9.668,1.443-12.736,4.471l-.076.077a1.264,1.264,0,0,1-1.782,0l-.075-.075c-2.528-2.5-6.337-4.812-10.234-4.812a9.215,9.215,0,0,0-2.5.339,11.408,11.408,0,0,0-8.441,8.567C1831.419-751.544,1832.157-747.925,1839.09-740.992Zm-40.43-91.786.225-1.71.839-6.373-1.3-6.015a2.524,2.524,0,0,1,.476-2.168,3.212,3.212,0,0,1,2.549-1.2h42.432a3.21,3.21,0,0,1,2.546,1.194,2.558,2.558,0,0,1,.465,2.224l-1.288,5.957.847,6.376.2,1.5a114.642,114.642,0,0,1,0,30.2l-1.052,8.044,1.306,6.033a2.531,2.531,0,0,1-.479,2.172,3.212,3.212,0,0,1-2.546,1.193h-42.433a3.208,3.208,0,0,1-2.547-1.194,2.557,2.557,0,0,1-.464-2.225l1.292-5.977-1.033-7.842A114.616,114.616,0,0,1,1798.66-832.778Zm2.214-14.685,1.149,5.309h41.282l1.137-5.253c0-.108-.174-.311-.56-.311H1801.45A.617.617,0,0,0,1800.874-847.463Zm.322,44.549.917,6.966h41.1l.938-7.166a112.166,112.166,0,0,0,0-29.537l-.928-6.982h-41.12l-.946,7.185A112.1,112.1,0,0,0,1801.2-802.915Zm43.262,14.795-1.151-5.308h-41.281l-1.136,5.252c0,.109.174.312.56.312h42.433A.623.623,0,0,0,1844.457-788.12Zm-6.622-33.379a3.11,3.11,0,0,1-.792,3.207l-4.691,4.573a.609.609,0,0,0-.175.54l1.109,6.453a3.112,3.112,0,0,1-1.246,3.061,3.115,3.115,0,0,1-1.836.6,3.127,3.127,0,0,1-1.457-.362l-5.8-3.049a.607.607,0,0,0-.565,0l-5.8,3.05a3.117,3.117,0,0,1-3.3-.24,3.11,3.11,0,0,1-1.243-3.06l1.107-6.455a.605.605,0,0,0-.174-.537l-4.691-4.574a3.111,3.111,0,0,1-.791-3.208,3.107,3.107,0,0,1,2.524-2.127l6.483-.942a.609.609,0,0,0,.457-.333l2.9-5.875a3.11,3.11,0,0,1,2.805-1.743,3.109,3.109,0,0,1,2.8,1.743l2.9,5.875a.612.612,0,0,0,.458.333l6.483.942A3.107,3.107,0,0,1,1837.835-821.5Zm-7.276,15.795a.594.594,0,0,0,.243-.6l-1.109-6.454a3.13,3.13,0,0,1,.9-2.771l4.689-4.572a.592.592,0,0,0,.155-.623.592.592,0,0,0-.49-.413l-6.483-.942a3.132,3.132,0,0,1-2.355-1.71l-2.9-5.877a.593.593,0,0,0-.545-.338.593.593,0,0,0-.545.338l-2.9,5.875a3.124,3.124,0,0,1-2.354,1.711l-6.483.942a.591.591,0,0,0-.489.413.593.593,0,0,0,.154.623l4.69,4.573a3.127,3.127,0,0,1,.9,2.77l-1.107,6.455a.591.591,0,0,0,.241.594.589.589,0,0,0,.641.047l5.8-3.049a3.137,3.137,0,0,1,1.456-.359,3.125,3.125,0,0,1,1.456.359l5.8,3.049A.591.591,0,0,0,1830.559-805.7ZM1948-912.221h48.1a12.153,12.153,0,0,1,12.139,12.139v33.763a12.152,12.152,0,0,1-12.139,12.139h-7.854a4.15,4.15,0,0,0-2.955,1.224l-8.848,8.848a6.654,6.654,0,0,1-4.738,1.963,6.656,6.656,0,0,1-4.737-1.963l-8.848-8.849a4.153,4.153,0,0,0-2.955-1.223H1948a12.152,12.152,0,0,1-12.139-12.139v-33.763A12.153,12.153,0,0,1,1948-912.221Zm57.721,12.139a9.63,9.63,0,0,0-9.619-9.619H1948a9.63,9.63,0,0,0-9.618,9.619v33.763A9.63,9.63,0,0,0,1948-856.7h7.169a6.656,6.656,0,0,1,4.737,1.961l8.848,8.849a4.153,4.153,0,0,0,2.955,1.224,4.154,4.154,0,0,0,2.955-1.224l8.848-8.848a6.655,6.655,0,0,1,4.738-1.962h7.854a9.63,9.63,0,0,0,9.619-9.619Zm-15.88,20.027a21.889,21.889,0,0,1-5.521,6.21l-11.778,9.165a1.26,1.26,0,0,1-.774.266,1.255,1.255,0,0,1-.771-.264l-11.826-9.153a24.208,24.208,0,0,1-5.1-5.285l-.146-.219a11.37,11.37,0,0,1-1.181-9.767,10.686,10.686,0,0,1,6.391-6.686,11.362,11.362,0,0,1,3.986-.715,11.387,11.387,0,0,1,8.487,3.783,11.389,11.389,0,0,1,8.488-3.783,11.351,11.351,0,0,1,6.606,2.1A11.022,11.022,0,0,1,1989.84-880.055Zm-18.075,12.784,11.006-8.564a19.331,19.331,0,0,0,4.863-5.441l1.112.595-1.094-.626a8.481,8.481,0,0,0-2.407-11.037,8.845,8.845,0,0,0-5.147-1.637,8.887,8.887,0,0,0-7.435,4.013,1.309,1.309,0,0,1-2.1,0,8.887,8.887,0,0,0-7.435-4.013,8.883,8.883,0,0,0-3.106.556,8.182,8.182,0,0,0-4.88,5.126,8.855,8.855,0,0,0,.915,7.609l.093.141a21.689,21.689,0,0,0,4.567,4.727Zm63.493,80.635a7.684,7.684,0,0,1-1.815,6.105,7.684,7.684,0,0,1-5.8,2.638h-29.825l1.352,9.717a7.685,7.685,0,0,1-1.815,6.106,7.682,7.682,0,0,1-5.8,2.638h-41.334a7.683,7.683,0,0,1-5.8-2.638,7.684,7.684,0,0,1-1.814-6.106l1.352-9.717h-29.826a7.683,7.683,0,0,1-5.8-2.638,7.684,7.684,0,0,1-1.815-6.105l1.752-12.582a21.124,21.124,0,0,1,15.141-17.328,16.865,16.865,0,0,1-5.539-12.485,16.943,16.943,0,0,1,16.924-16.924,16.943,16.943,0,0,1,16.924,16.924,16.864,16.864,0,0,1-5.539,12.485,21.112,21.112,0,0,1,7.868,4.208A16.947,16.947,0,0,1,1970.9-827.5a16.947,16.947,0,0,1,16.831,15.157,21.115,21.115,0,0,1,7.868-4.208,16.864,16.864,0,0,1-5.539-12.485,16.943,16.943,0,0,1,16.924-16.924,16.943,16.943,0,0,1,16.924,16.924,16.864,16.864,0,0,1-5.539,12.485,21.124,21.124,0,0,1,15.141,17.328Zm-3.717,4.449a5.161,5.161,0,0,0,1.22-4.1l-1.751-12.582a18.581,18.581,0,0,0-15.313-15.683,16.791,16.791,0,0,1-8.718,2.445,16.791,16.791,0,0,1-8.717-2.445,18.569,18.569,0,0,0-10.529,5.68,16.877,16.877,0,0,1-4.811,10.192l-.108.772a21.108,21.108,0,0,1,14.607,17.152l.048.344h30.176A5.159,5.159,0,0,0,2031.542-782.187Zm-34.864,14.359-1.751-12.581a18.581,18.581,0,0,0-15.312-15.684,16.8,16.8,0,0,1-8.719,2.446,16.8,16.8,0,0,1-8.719-2.446,18.582,18.582,0,0,0-15.312,15.684l-1.751,12.581a5.158,5.158,0,0,0,1.22,4.1,5.16,5.16,0,0,0,3.895,1.774h41.334a5.161,5.161,0,0,0,3.895-1.774A5.161,5.161,0,0,0,1996.678-767.828Zm-82.533-12.585h30.177l.048-.344a21.109,21.109,0,0,1,14.607-17.152l-.108-.773a16.87,16.87,0,0,1-4.81-10.191,18.569,18.569,0,0,0-10.529-5.68,16.789,16.789,0,0,1-8.717,2.445,16.787,16.787,0,0,1-8.717-2.445,18.58,18.58,0,0,0-15.313,15.683l-1.751,12.582a5.161,5.161,0,0,0,1.22,4.1A5.159,5.159,0,0,0,1914.145-780.413Zm20.667-34.215a14.419,14.419,0,0,0,14.4-14.4,14.419,14.419,0,0,0-14.4-14.4,14.419,14.419,0,0,0-14.4,14.4A14.42,14.42,0,0,0,1934.812-814.628Zm36.084,18.461a14.42,14.42,0,0,0,14.4-14.4,14.42,14.42,0,0,0-14.4-14.4,14.42,14.42,0,0,0-14.4,14.4A14.421,14.421,0,0,0,1970.9-796.167Zm36.084-18.461a14.42,14.42,0,0,0,14.4-14.4,14.419,14.419,0,0,0-14.4-14.4,14.419,14.419,0,0,0-14.4,14.4A14.419,14.419,0,0,0,2006.98-814.628Z" transform="translate(-1756.534 971.007)" fill="#38a271"/>
</svg>
