<svg xmlns="http://www.w3.org/2000/svg" width="203.758" height="168.631" viewBox="0 0 203.758 168.631">
  <path id="Path_53345" data-name="Path 53345" d="M-115.044,195.072c-2.255,0-4.359.175-6.426-.03A19.107,19.107,0,0,1-138.639,176.4c-.126-14.524-.042-29.05-.047-43.575,0-4.194-.007-8.389,0-12.583a19.322,19.322,0,0,1,19.649-19.6l82.84,0c10.362,0,18.345,6.916,19.759,17.182a30.914,30.914,0,0,1,.11,4.188q.008,26.739,0,53.479a19.256,19.256,0,0,1-15.954,19.405,21.235,21.235,0,0,1-4.052.336q-21.788.036-43.576,0a2.546,2.546,0,0,0-2.18.968q-13.194,15.389-26.446,30.727c-1.3,1.512-2.688,1.979-4.2,1.424s-2.3-1.843-2.3-3.8q-.01-13.69-.006-27.381Zm7.018,20.253.256.142c.179-.237.347-.484.54-.708,6.866-7.974,13.781-15.907,20.568-23.947a6.572,6.572,0,0,1,5.586-2.573c14.99.095,29.98.064,44.97.042a12.44,12.44,0,0,0,12.84-12.772q.03-27.786,0-55.573a11.626,11.626,0,0,0-1.958-6.6,12.268,12.268,0,0,0-10.8-5.76q-41.417.02-82.835.005c-7.541,0-12.891,5.346-12.892,12.909q0,10.252,0,20.5c0,11.65-.025,23.3.011,34.951a12.227,12.227,0,0,0,10.948,12.166c2.731.276,5.505.148,8.26.168,3.338.025,4.431,1.117,4.432,4.5q0,10.66.008,21.32C-108.081,214.508-108.045,214.916-108.026,215.324ZM-50.373,79.782A15.132,15.132,0,0,1-50,76.326a12.473,12.473,0,0,1,12.446-9.445q20.449-.02,40.9,0,20.974,0,41.947,0c7.041.005,12.763,5.353,12.78,12.117q.073,28.255,0,56.511a12.029,12.029,0,0,1-9.892,11.76,64.438,64.438,0,0,1-9.174.312c-3.389.036-4.574,1.179-4.572,4.525q.008,10.661-.006,21.323c0,.406-.038.813-.073,1.514-.51-.568-.82-.9-1.116-1.243Q22.7,161.479,12.181,149.246a4.451,4.451,0,0,0-3.653-1.665c-4.738.033-9.477.012-14.215.012h-1.2v6.95c4.452,0,8.8.027,13.147-.021a2.558,2.558,0,0,1,2.181,1.014c3.571,4.2,7.183,8.369,10.783,12.547q7.909,9.179,15.823,18.354a3.505,3.505,0,0,0,6.337-2.229c.012-.31,0-.622,0-.932,0-9.166.017-18.333-.014-27.5,0-.955.253-1.274,1.235-1.259a33.391,33.391,0,0,0,5.7-.173A19.228,19.228,0,0,0,65.032,134.79q.044-27.673-.024-55.347a20.153,20.153,0,0,0-.633-5.058,19.313,19.313,0,0,0-18.9-14.441q-41.481-.034-82.963,0a20.747,20.747,0,0,0-3.935.347,19.281,19.281,0,0,0-15.9,19.1c-.034,3.689-.007,7.379,0,11.069,0,.371.035.741.056,1.13h6.878C-50.39,87.541-50.418,83.661-50.373,79.782Zm69.512,27.187a5.656,5.656,0,1,0,11.311.222,5.711,5.711,0,0,0-5.618-5.775A5.652,5.652,0,0,0,19.139,106.969ZM1.126,101.416a5.664,5.664,0,1,0,5.654,5.7A5.65,5.65,0,0,0,1.126,101.416Zm-65.284,68.671a34.87,34.87,0,0,0,16.912-11.029,3.6,3.6,0,0,0,.982-2.989,3.311,3.311,0,0,0-2.462-2.817,3.3,3.3,0,0,0-3.665,1.139,24.964,24.964,0,0,1-6.527,5.738,34.88,34.88,0,0,1-21.073,4.908c-8.873-.634-16.706-3.59-22.607-10.626a3.445,3.445,0,0,0-4.98-.463,3.355,3.355,0,0,0-.314,4.893,39.177,39.177,0,0,0,4.58,4.618c7.494,6.055,16.253,8.478,25.2,8.661A46.068,46.068,0,0,0-64.158,170.087ZM-93.4,125.656a5.63,5.63,0,0,0-5.606,5.532,5.561,5.561,0,0,0,5.62,5.6,5.475,5.475,0,0,0,5.514-5.558A5.551,5.551,0,0,0-93.4,125.656Zm37.406,5.6a5.626,5.626,0,0,0-5.539-5.6,5.561,5.561,0,0,0-5.6,5.627,5.488,5.488,0,0,0,5.566,5.508A5.564,5.564,0,0,0-55.993,131.253Z" transform="translate(138.709 -59.931)" fill="#fff"/>
</svg>
