<svg xmlns="http://www.w3.org/2000/svg" width="33.716" height="26.347" viewBox="0 0 33.716 26.347">
  <path id="Path_54151" data-name="Path 54151" d="M1065.569,1037.073a12.505,12.505,0,0,1-1.476-.079,3.039,3.039,0,0,1-2.6-2.781c-.129-1.4-.278-2.829-.422-4.207q-.1-.942-.2-1.883-.031-.3-.061-.609c-.052-.526-.105-1.07-.172-1.6a.788.788,0,0,0-.42-.567,3.082,3.082,0,0,1-1.949-3.021q0-.63,0-1.259,0-.428,0-.856a3.088,3.088,0,0,1,3.147-3.152l1.725,0h1.643c.837,0,1.823,0,2.8-.007a1.672,1.672,0,0,0,.805-.216c2.043-1.184,4.116-2.392,6.121-3.562l3.557-2.072a3.36,3.36,0,0,1,1.682-.47,3.117,3.117,0,0,1,3.037,2.626,2.273,2.273,0,0,1,.024.4q0,.3,0,.607c0,.68.008,1.383-.009,2.071a.812.812,0,0,0,.605.891,4.239,4.239,0,0,1-.053,7.972.73.73,0,0,0-.552.781c.012.647.01,1.307.008,1.946q0,.35,0,.7a3.084,3.084,0,0,1-3.078,3.153h0a3.188,3.188,0,0,1-1.6-.435c-1.19-.679-2.393-1.384-3.557-2.066q-.817-.479-1.635-.957l-.933-.544c-1.2-.7-2.448-1.428-3.677-2.136a1.982,1.982,0,0,0-.471-.177c-.061-.017-.118-.033-.171-.051l-.236-.079-.323.432.412,1.374q.419,1.395.835,2.79c.1.323.2.649.3.965.234.753.477,1.532.657,2.3a3.047,3.047,0,0,1-.541,2.544,3.087,3.087,0,0,1-2.336,1.217C1066.141,1037.067,1065.847,1037.073,1065.569,1037.073Zm-3.266-11.135c.012.145.023.282.034.415.022.274.043.532.069.79q.147,1.456.3,2.911.2,1.976.4,3.953a1.456,1.456,0,0,0,1.523,1.392q.434,0,.869,0l.783,0a1.534,1.534,0,0,0,1.243-.59,1.454,1.454,0,0,0,.206-1.288c-.7-2.4-1.394-4.716-2.228-7.49a.665.665,0,0,0-.547-.458c-.45-.01-.889-.011-1.26-.011h-1.421Zm17.467-13.641a1.816,1.816,0,0,0-.911.265l-3.308,1.945c-1.988,1.169-4.043,2.378-6.067,3.561a.816.816,0,0,0-.429.782c.009,1.755.008,3.335,0,4.832a.842.842,0,0,0,.457.805c2.943,1.721,5.978,3.506,9.278,5.457a1.86,1.86,0,0,0,.958.3,1.421,1.421,0,0,0,.7-.188,1.613,1.613,0,0,0,.774-1.514c0-1.8,0-3.635,0-5.407,0-.621,0-3.972,0-3.972q0-2.618,0-5.237A1.5,1.5,0,0,0,1079.77,1012.3Zm-16.013,6.384c-.868,0-1.588,0-2.264,0a1.483,1.483,0,0,0-1.6,1.461c-.021.775-.02,1.564,0,2.344a1.436,1.436,0,0,0,1.4,1.437c.745,0,1.561.007,2.566.007h3.57v-5.2l-.317-.026-.079-.008a1.937,1.937,0,0,0-.2-.013h-3.07Zm19.082,5.185.536-.36a2.634,2.634,0,0,0,0-4.491l-.531-.345Zm5.159-5.787a.772.772,0,0,0,.207-.048l.193-.107c.659-.366,1.34-.744,1.981-1.152a.769.769,0,0,0,.212-1.053.828.828,0,0,0-.694-.408.65.65,0,0,0-.307.075c-.68.358-1.39.768-2.172,1.254a.741.741,0,0,0-.29.861.832.832,0,0,0,.744.6C1087.916,1018.092,1087.957,1018.086,1088,1018.08Zm1.916,9.176a.815.815,0,0,0,.789-.806.745.745,0,0,0-.344-.669c-.575-.348-1.335-.8-2.117-1.223a.694.694,0,0,0-.333-.083.833.833,0,0,0-.7.4.775.775,0,0,0,.209,1.053c.828.521,1.517.916,2.169,1.245a.724.724,0,0,0,.329.08Zm.151-5.159c.394,0,.791,0,1.177-.012a.781.781,0,0,0,.753-.8.771.771,0,0,0-.749-.8c-.133-.005-.276-.008-.449-.008l-.374,0-.38,0-.344,0v0h-.025l-.364,0c-.169,0-.308,0-.437.006a.8.8,0,0,0-.015,1.6c.4.008.81.012,1.207.012Z" transform="translate(-1058.279 -1010.726)" fill="#fff"/>
</svg>
