<svg width="79" height="71" viewBox="0 0 79 71" fill="none" xmlns="http://www.w3.org/2000/svg">
<path fill-rule="evenodd" clip-rule="evenodd" d="M58.0936 18.4031C59.1592 19.345 59.2589 20.9744 58.317 22.0469L38.5514 44.3906C38.3231 44.6487 38.0454 44.8584 37.7347 45.0074C37.424 45.1564 37.0866 45.2415 36.7425 45.2579C36.3983 45.2742 36.0543 45.2214 35.7309 45.1025C35.4075 44.9837 35.1112 44.8012 34.8595 44.5659L21.9689 32.5347C21.473 32.0673 21.1823 31.4227 21.1603 30.7416C21.1383 30.0605 21.3868 29.3985 21.8516 28.9001C22.3163 28.4018 22.9594 28.1077 23.6404 28.0821C24.3213 28.0566 24.9847 28.3016 25.4854 28.7637L36.4511 38.9731L54.4636 18.6231C54.6882 18.3691 54.9606 18.1618 55.2654 18.0132C55.5702 17.8646 55.9013 17.7776 56.2398 17.7572C56.5783 17.7368 56.9174 17.7833 57.2379 17.8941C57.5584 18.005 57.8538 18.1779 58.1073 18.4031H58.0936Z" fill="black"/>
<path d="M3 67.6667L16.4357 60.9486C17.4542 60.4394 17.9635 60.1847 18.4974 60.0053C18.9711 59.846 19.4589 59.7309 19.954 59.6613C20.5117 59.5833 21.0812 59.5833 22.2197 59.5833H62.8167C67.3438 59.5833 69.6073 59.5833 71.3364 58.7023C72.8574 57.9275 74.094 56.6907 74.869 55.1698C75.75 53.4408 75.75 51.1771 75.75 46.65V15.9333C75.75 11.4062 75.75 9.14269 74.869 7.41358C74.094 5.89258 72.8574 4.65599 71.3364 3.88104C69.6073 3 67.3437 3 62.8167 3H15.9333C11.4063 3 9.14252 3 7.4135 3.88104C5.89262 4.65599 4.65588 5.89258 3.88109 7.41358C3.00001 9.14269 3 11.4063 3 15.9333V67.6667Z" stroke="black" stroke-width="5.33333" stroke-linecap="round" stroke-linejoin="round"/>
</svg>
