<svg xmlns="http://www.w3.org/2000/svg" width="29.878" height="21.134" viewBox="0 0 29.878 21.134">
  <path id="Path_53932" data-name="Path 53932" d="M166.559,340.04a2.173,2.173,0,0,0,2.04,1.39c3.235.009,6.47,0,9.705,0h3.083v0h12.56a2.12,2.12,0,0,0,2.341-2.215,2.2,2.2,0,0,0-2.367-2.168q-12.446,0-24.892,0a2.661,2.661,0,0,0-1.909.591A2.178,2.178,0,0,0,166.559,340.04Zm12.416,5.459c.913-.012,1.826-.007,2.739-.007q6.134,0,12.268,0a2.164,2.164,0,0,1,2.031,3.057,1.974,1.974,0,0,1-1.876,1.264c-2.527.016-5.054.005-7.581.005v.044c-1.615,0-3.231.007-4.846,0-.987-.006-1.978.007-2.961-.07a2.144,2.144,0,0,1-1.94-2.219A2.192,2.192,0,0,1,178.976,345.5Zm15.091-12.4c-1.732.006-3.464,0-5.2,0v0c-1.751,0-3.5,0-5.253,0a2.166,2.166,0,0,1-1.921-3.162,2.2,2.2,0,0,1,2.166-1.2c2.149-.005,4.3-.016,6.447-.01,1.312,0,2.627-.006,3.935.069a2.153,2.153,0,0,1-.177,4.3Z" transform="translate(-166.411 -328.73)" fill="#fff"/>
</svg>
