<svg xmlns="http://www.w3.org/2000/svg" width="28.611" height="28.612" viewBox="0 0 28.611 28.612">
  <path id="Path_53931" data-name="Path 53931" d="M6167.58,2024.657a1.124,1.124,0,0,1-.8-.395l-.947-.948q-2.157-2.158-4.313-4.317-.609-.609-1.213-1.218l-.912-.916-.381.285a11.883,11.883,0,0,1-7.145,2.423h0a11.759,11.759,0,0,1-11.769-12.494,11.66,11.66,0,0,1,3.44-7.608,11.742,11.742,0,0,1,19.926,6.667,11.92,11.92,0,0,1-2.328,8.9l-.346.463.48.322c.035.024.073.047.112.07a.9.9,0,0,1,.091.058q1.716,1.711,3.433,3.428,1.667,1.667,3.336,3.333a1.073,1.073,0,0,1,.384,1.213,1,1,0,0,1-.939.733A.979.979,0,0,1,6167.58,2024.657Zm-15.753-26.485a9.638,9.638,0,0,0-.014,19.275h.023a9.638,9.638,0,0,0-.005-19.275Z" transform="translate(-6140.073 -1996.045)" fill="#fff"/>
</svg>
