<svg xmlns="http://www.w3.org/2000/svg" width="23.003" height="23.659" viewBox="0 0 23.003 23.659">
  <path id="Path_53995" data-name="Path 53995" d="M-1057.263-3335.728c0,.24,0,.462,0,.685a.708.708,0,0,1-.628.629q-.992,0-1.985,0a.428.428,0,0,1-.453-.454c0-.282,0-.564,0-.86h-9.344c-.366,0-.544-.182-.509-.545.064-.667.138-1.333.208-2,.046-.439.083-.88.14-1.318a3.778,3.778,0,0,1,1-2.115,8.33,8.33,0,0,1,1.186-1.052,3.163,3.163,0,0,1,1.691-.586c.554-.042,1.1-.126,1.658-.175.508-.044,1.019-.09,1.529-.093,1.83-.011,3.66-.005,5.489,0a.331.331,0,0,0,.262-.106q1.69-1.7,3.385-3.391a1.4,1.4,0,0,1,1.088-.45c.292.01.584,0,.876,0a1.212,1.212,0,0,1,.879.35q1.632,1.62,3.253,3.252a1.223,1.223,0,0,1,.356.89c0,.306,0,.612,0,.917a1.337,1.337,0,0,1-.416,1.006c-.468.468-.937.934-1.4,1.406a.265.265,0,0,0-.064.188c.045.476.1.951.152,1.427q.093.884.181,1.768a.977.977,0,0,1,0,.3.43.43,0,0,1-.461.325h-8.068Zm-12-.884h8.929c0-.071,0-.135,0-.2a.692.692,0,0,1,.669-.67h.645c0-.246,0-.474,0-.7a.72.72,0,0,1,.617-.613c.084,0,.169,0,.259,0a1.189,1.189,0,0,0,0-.13.62.62,0,0,1,.23-.554c.356-.34.7-.695,1.048-1.043l.537-.533c-.248-.247-.487-.486-.727-.724a1.355,1.355,0,0,1-.392-.736c-.013-.07-.015-.142-.024-.224h-.156c-1.588,0-3.176-.007-4.764,0-.583,0-1.167.04-1.748.088-.649.054-1.295.144-1.943.207a1.946,1.946,0,0,0-.9.295,5.931,5.931,0,0,0-1.373,1.225,2.951,2.951,0,0,0-.639,1.643c-.044.49-.1.979-.152,1.468C-1069.179-3337.413-1069.218-3337.019-1069.259-3336.612Zm21.2-5.96c0-.142,0-.283,0-.424a.515.515,0,0,0-.158-.393q-1.569-1.567-3.137-3.137a.508.508,0,0,0-.38-.156q-.424,0-.849,0a.52.52,0,0,0-.391.163q-1.717,1.72-3.436,3.438a.437.437,0,0,0,0,.692c.373.368.753.73,1.124,1.1q1.455,1.449,2.9,2.9a.459.459,0,0,0,.771,0q1.549-1.549,3.1-3.1C-1048-3341.992-1048.066-3341.831-1048.062-3342.572Zm-10.077,4.653c0,.227-.012.441,0,.653.035.514-.158.7-.66.664-.216-.014-.434,0-.646,0v1.307h1.3c0-.294,0-.581,0-.867a.427.427,0,0,1,.441-.439c.146,0,.292,0,.438,0h.435c0-.154,0-.286,0-.418a.431.431,0,0,1,.464-.458,3.644,3.644,0,0,0,.369,0,.353.353,0,0,0,.2-.082c.472-.463.938-.932,1.405-1.4.028-.028.052-.058.079-.088l-.042.03-1.316-1.373a.185.185,0,0,0-.04-.023c-.033.031-.066.06-.1.092-.358.358-.7.732-1.079,1.068a.959.959,0,0,0-.386.9.406.406,0,0,1-.436.436C-1057.847-3337.917-1057.987-3337.918-1058.14-3337.918Zm8.412-1.315-.038-.013-.074.124a3.842,3.842,0,0,1-.354.565c-.269.3-.565.583-.858.865a1.31,1.31,0,0,1-1.9-.011c-.215-.211-.426-.426-.64-.638-.028-.028-.059-.052-.093-.082-.456.457-.9.909-1.355,1.352a2.382,2.382,0,0,1-.379.284c-.135.087-.281.157-.422.235l.01.032.168-.014c.245-.023.489-.066.734-.067,1.7-.006,3.4,0,5.106,0h.171c-.042-.414-.084-.812-.122-1.21a2.922,2.922,0,0,1-.02-1.018A4,4,0,0,0-1049.728-3339.233Zm-9.725-7.448a5.69,5.69,0,0,1-5.7-5.677,5.688,5.688,0,0,1,5.687-5.714,5.689,5.689,0,0,1,5.7,5.656A5.687,5.687,0,0,1-1059.452-3346.681Zm.007-10.514a4.83,4.83,0,0,0-4.827,4.814,4.833,4.833,0,0,0,4.817,4.824,4.821,4.821,0,0,0,4.818-4.808A4.816,4.816,0,0,0-1059.446-3357.2Zm8.5,15.892a1.373,1.373,0,0,1-.308-.17q-1.018-1-2.023-2.02a.422.422,0,0,1,0-.614q.614-.624,1.238-1.238a.439.439,0,0,1,.666.032q.794.791,1.586,1.586c.126.126.253.25.376.378a.437.437,0,0,1,0,.656c-.4.4-.8.81-1.212,1.206A1.52,1.52,0,0,1-1050.945-3341.3Zm.588-1.722-1.359-1.357-.6.6,1.358,1.358Z" transform="translate(1070.188 3358.072)" fill="#606060"/>
</svg>
