<svg xmlns="http://www.w3.org/2000/svg" width="5.352" height="9.431" viewBox="0 0 5.352 9.431">
  <path id="Path_53979" data-name="Path 53979" d="M4937.369-2323.917a1.08,1.08,0,0,1-.324.475q-1.728,1.725-3.451,3.454c-.025.025-.049.051-.1.1a.568.568,0,0,1,.1.064l3.485,3.488a.745.745,0,0,1,.23.376.617.617,0,0,1-.264.645.61.61,0,0,1-.7-.02.957.957,0,0,1-.11-.1q-2-2-4-4a.615.615,0,0,1-.138-.779,1.284,1.284,0,0,1,.2-.238q1.978-1.984,3.959-3.967a.924.924,0,0,1,.366-.229h.254a2.771,2.771,0,0,1,.281.158.666.666,0,0,1,.207.35Z" transform="translate(-4932.018 2324.64)" fill="#606060"/>
</svg>
