<svg xmlns="http://www.w3.org/2000/svg" width="23.916" height="23.049" viewBox="0 0 23.916 23.049">
  <path id="Path_172" data-name="Path 172" d="M-1436.51-881.806c-1.813,2.165-3.632,4.324-5.437,6.5a1.71,1.71,0,0,0,.161,2.476,1.769,1.769,0,0,0,2.523-.23c.37-.421.723-.859,1.084-1.288q3.527-4.2,7.057-8.4a1.74,1.74,0,0,0-.026-2.364q-4.035-4.8-8.073-9.6a1.768,1.768,0,0,0-2.541-.354,1.739,1.739,0,0,0-.124,2.6q2.635,3.141,5.271,6.28c.13.155.249.319.423.544h-.712c-5.25,0-10.5-.009-15.749.016a2.488,2.488,0,0,0-1.258.372,1.607,1.607,0,0,0-.583,1.882,1.69,1.69,0,0,0,1.687,1.2q7.956.006,15.912,0h.668C-1436.364-882-1436.433-881.9-1436.51-881.806Z" transform="translate(-1430.673 -872.408) rotate(180)" fill="#fff"/>
</svg>
