<svg xmlns="http://www.w3.org/2000/svg" width="23.004" height="22.457" viewBox="0 0 23.004 22.457">
  <path id="Path_53992" data-name="Path 53992" d="M-3186.243,2076.721l-.047.11a1.816,1.816,0,0,1-.982.988,1.763,1.763,0,0,1-.423.12,1.767,1.767,0,0,1-.284.021c-.507,0-1.014,0-1.521,0a1.833,1.833,0,0,1-1.779-1.417,1.867,1.867,0,0,1-.042-.478,1.835,1.835,0,0,1,1.356-1.7,1.93,1.93,0,0,1,.488-.062q.741,0,1.482,0a1.821,1.821,0,0,1,1,.288,1.833,1.833,0,0,1,.649.711c.012.023.022.047.034.07a.054.054,0,0,0,.063.033c.08-.018.161-.034.24-.055a5.154,5.154,0,0,0,2.469-1.438,5.076,5.076,0,0,0,1.1-1.747c.006-.016.012-.032.018-.049a.034.034,0,0,0-.019-.043.527.527,0,0,0-.061-.021,2.275,2.275,0,0,1-.689-.293,2.268,2.268,0,0,1-1-1.4,2.153,2.153,0,0,1-.056-.7,2.446,2.446,0,0,1,.075-.434q.431-1.6.861-3.209c.062-.229.122-.46.185-.689a2.283,2.283,0,0,1,1.577-1.569,2.328,2.328,0,0,1,.758-.081,2.209,2.209,0,0,1,.472.079c.187.052.375.1.563.15.037.01.075.017.112.025.006-.01.015-.017.015-.023,0-.056-.007-.113-.014-.168a8.047,8.047,0,0,0-.524-1.977,7.941,7.941,0,0,0-1.287-2.125,8,8,0,0,0-2.859-2.157,7.837,7.837,0,0,0-1.435-.486c-.2-.047-.406-.088-.611-.12-.179-.027-.36-.046-.541-.063a10.434,10.434,0,0,0-1.169-.018c-.039,0-.077.007-.116.01l-.142.013c-.052,0-.1.01-.155.016-.086.011-.172.02-.258.032-.128.018-.257.039-.384.064a8.217,8.217,0,0,0-.866.221,7.942,7.942,0,0,0-2.566,1.36,7.958,7.958,0,0,0-2.3,2.909,7.834,7.834,0,0,0-.571,1.721c-.051.242-.087.486-.12.73a.2.2,0,0,0,0,.051s0,.006.01.012l.411-.109c.121-.032.243-.062.364-.094a1.957,1.957,0,0,1,.515-.059,2.224,2.224,0,0,1,1.239.367,2.232,2.232,0,0,1,.963,1.31c.08.287.156.576.233.865l.558,2.081c.085.318.167.636.255.953a2.178,2.178,0,0,1,.066.8,2.246,2.246,0,0,1-.509,1.23,2.22,2.22,0,0,1-1.156.753l-.951.257c-.033.009-.066.021-.1.032-.014.033-.025.065-.04.1a.624.624,0,0,1-.386.344c-.12.037-.241.068-.362.1l-1.7.457a.933.933,0,0,1-.268.041.627.627,0,0,1-.544-.321.572.572,0,0,1-.063-.156c-.04-.15-.082-.3-.122-.451q-.348-1.3-.7-2.6-.422-1.574-.842-3.147l-.377-1.4a.969.969,0,0,1-.039-.217.643.643,0,0,1,.452-.628c.091-.027.183-.052.275-.076l1.39-.37c.033-.009.066-.019.1-.031a.032.032,0,0,0,.016-.019.294.294,0,0,0,.009-.051c.018-.146.032-.292.054-.438.044-.291.1-.58.169-.866a9.168,9.168,0,0,1,.863-2.234,9.25,9.25,0,0,1,2.045-2.552,9.263,9.263,0,0,1,3.336-1.878,8.906,8.906,0,0,1,.979-.25c.182-.036.365-.067.55-.093a2.2,2.2,0,0,1,.323-.035c.158-.03.32-.02.479-.041a.48.48,0,0,1,.065,0h.793c.172.02.346.016.518.041.107.015.215.022.323.034.069.008.137.017.206.029.345.06.688.13,1.025.223a9.153,9.153,0,0,1,2.8,1.3,9.249,9.249,0,0,1,3.267,3.955,8.873,8.873,0,0,1,.565,1.765c.053.254.1.51.129.768.009.078.017.155.026.232,0,.026.007.052.012.077a.054.054,0,0,0,.042.043l.275.075,1.39.37a.766.766,0,0,1,.238.1.649.649,0,0,1,.292.524.672.672,0,0,1-.034.217q-.156.583-.312,1.166l-.584,2.182q-.319,1.191-.639,2.382l-.48,1.793c-.01.038-.018.076-.03.113a.641.641,0,0,1-.45.446.425.425,0,0,1-.1.018.909.909,0,0,1-.3-.03c-.363-.1-.726-.2-1.089-.293-.3-.082-.609-.166-.914-.246a1.225,1.225,0,0,1-.219-.08.035.035,0,0,0-.044.017l-.046.107a6.406,6.406,0,0,1-1.681,2.345,6.431,6.431,0,0,1-2.494,1.37,4.977,4.977,0,0,1-.606.14C-3186.147,2076.7-3186.189,2076.708-3186.243,2076.721Zm6.509-11.463c-.028-.01-.056-.023-.084-.031l-.864-.231a.922.922,0,0,0-.5,0,.977.977,0,0,0-.7.657c-.021.061-.036.125-.052.187l-.635,2.369q-.181.676-.363,1.353a.99.99,0,0,0-.019.475,1,1,0,0,0,.35.576,1.046,1.046,0,0,0,.4.2l.851.228a.145.145,0,0,0,.038.006.032.032,0,0,0,.031-.02c.007-.02.015-.04.02-.061q.339-1.266.678-2.531.344-1.285.69-2.569c.044-.163.088-.325.131-.489A.315.315,0,0,0-3179.735,2065.258Zm-14.5-.3a.908.908,0,0,0-.269.037l-.788.212-.137.039a.036.036,0,0,0-.017.032c0,.017.007.034.012.05l.165.614q.348,1.3.7,2.594l.634,2.368c.01.038.021.075.032.112a.045.045,0,0,0,.043.022l.038-.009.35-.094c.188-.051.375-.1.562-.153a.991.991,0,0,0,.7-1.07,1.548,1.548,0,0,0-.039-.19c-.1-.364-.2-.727-.292-1.09l-.638-2.381c-.035-.13-.067-.26-.105-.388A1,1,0,0,0-3194.235,2064.962Zm-3.415.567c.034.131.069.265.1.4q.345,1.285.69,2.569.445,1.66.889,3.321c.008.029.017.058.026.087a.037.037,0,0,0,.042.02l.776-.207a.071.071,0,0,0,.051-.047q-.85-3.167-1.7-6.347a.184.184,0,0,0-.016-.033.077.077,0,0,0-.027,0l-.151.038-.6.16A.128.128,0,0,0-3197.65,2065.529Zm19.275-.247a.162.162,0,0,0-.046.095q-.263.984-.526,1.968l-1.08,4.021q-.039.144-.077.288a.045.045,0,0,0,.035.059l.038.01.65.176.1.026a.04.04,0,0,0,.043-.02l.011-.037.322-1.2.615-2.293q.319-1.19.638-2.38c.036-.134.072-.267.108-.4a.085.085,0,0,0,0-.077.156.156,0,0,0-.032-.016Zm-10.372,11.389h.688c.047,0,.095,0,.143,0a.373.373,0,0,0,.15-.038.535.535,0,0,0,.163-.875.542.542,0,0,0-.4-.157h-1.466a.682.682,0,0,0-.166.022.533.533,0,0,0-.3.819.506.506,0,0,0,.413.232l.116,0Z" transform="translate(3199.091 -2055.504)" fill="#606060"/>
</svg>
