<svg xmlns="http://www.w3.org/2000/svg" width="29.023" height="25.009" viewBox="0 0 29.023 25.009">
  <path id="Path_53968" data-name="Path 53968" d="M-5350.845-3731.5v1.137h-29.023v-1.135h4.907c.012-.263.024-.513.037-.776h6.145v.761h1.229v-.786h2.778v.792h.507v-1.909h-3.253v-6.269h1.093v5.115h3.3v2.247h1.663v.814h1.471v-.781h4.27v.79Zm-26.942-6.14c.157.142.515.056.784.083.233.024.307-.061.3-.3-.012-1.087-.006-2.175-.006-3.262v-.369h4.162v-1.136h-5.282c-.006.113-.018.226-.018.339q0,1.943,0,3.887C-5377.839-3738.137-5377.922-3737.765-5377.787-3737.641Zm23.834.081c.3,0,.569-.013.831,0,.233.015.312-.067.309-.3-.011-.946,0-1.892-.008-2.838,0-.643-.012-1.285-.017-1.928h-5.282v1.146h4.167Zm-1.8,4.107h-6.254v-6.236c.1-.005.188-.015.28-.015,1.883,0,3.767,0,5.65-.006.265,0,.331.078.328.336-.009,1.835,0,3.67,0,5.506Zm-1.168-5.09h-3.962v3.969h3.962Zm.866,18.033c-1.891-.008-3.784,0-5.676-.005-.092,0-.185-.01-.289-.017v-6.239h6.25c.005.1.015.192.015.283,0,1.891,0,3.783.006,5.675C-5355.751-3720.575-5355.822-3720.509-5356.057-3720.51Zm-.866-5.124h-3.962v3.959h3.962Zm-17.785-14.074c1.939.006,3.879,0,5.819.005.055,0,.11.01.19.018v6.241h-6.22c-.007-.1-.021-.188-.021-.278q0-2.866,0-5.732C-5374.945-3739.632-5374.9-3739.709-5374.708-3739.708Zm.923,5.131h3.963v-3.967h-3.963Zm-1.14,7.8h6.222v6.245h-6.222Zm1.142,5.1h3.964v-3.965h-3.964Zm8.451-7.369c-1.863.012-3.726.007-5.587.006-.084,0-.192.022-.251-.02-.379-.281-.784-.067-1.182-.128v1.29h.538c1.787,0,3.573,0,5.36-.006.232,0,.309.068.3.3-.016.6,0,1.209-.009,1.814,0,.167.046.242.225.232a4.971,4.971,0,0,1,.652,0c.209.016.279-.051.277-.268-.011-.964-.014-1.928,0-2.892C-5365-3728.964-5365.062-3729.048-5365.333-3729.046Zm-11.376,5.916h-1.116v5.513h5.267v-1.116h-4.151Zm22.747,4.405h-4.142v1.106h5.262v-5.51h-1.12Zm-10.292-2.935c-.494,0-.963.005-1.433,0-.17,0-.241.058-.234.229.008.227.012.454,0,.681-.01.188.068.247.249.244.482-.009.965,0,1.447,0h1.08v-6.243h-1.111Zm8.218-7.535c-.594.06-1.188.136-1.784.149-1.162.023-2.324.007-3.487.007h-.309v1.124c.115.005.216.014.318.014l1.758,0c1.172,0,2.344,0,3.516.006.232,0,.327-.065.309-.3a4.209,4.209,0,0,1,0-.679C-5355.7-3729.126-5355.78-3729.221-5356.035-3729.195Zm-9.2,6.03c.17,0,.24-.053.231-.227a5.178,5.178,0,0,1,0-.651c.018-.224-.083-.271-.283-.266-.472.011-.945.006-1.417.006h-.823v3.768h1.129v-2.633C-5365.993-3723.168-5365.616-3723.174-5365.239-3723.165Zm2.1-16.521h-1.084v3.9h1.084Zm-1.644.006h-1.1v3.052h1.1Zm-9.033,10.661a.234.234,0,0,0-.157-.166,7.28,7.28,0,0,0-.819,0c-.05,0-.139.082-.139.128-.011.431-.006.862-.006,1.312h1.128C-5373.808-3728.191-5373.8-3728.6-5373.814-3729.018Zm9.586,1.1h1.09v-1.25h-1.09Zm6.412-9.734h-2.159v2.169h2.159Zm.01,12.93h-2.17v2.154h2.17Zm-15.087-10.768h2.165v-2.159h-2.165Zm2.037,10.752c-.669-.008-1.339-.006-2.031-.006v2.18h2.175c0-.694,0-1.371-.006-2.047A.194.194,0,0,0-5370.857-3724.74Z" transform="translate(5379.868 3742.626)" fill="#38a271"/>
</svg>
