<svg xmlns="http://www.w3.org/2000/svg" width="23.003" height="19.552" viewBox="0 0 23.003 19.552">
  <path id="Path_164" data-name="Path 164" d="M644.059-2144.691q4.225,0,8.449,0a2.956,2.956,0,0,1,2.99,2.415,3.457,3.457,0,0,1,.058.694q.006,7.728,0,15.457a1.006,1.006,0,0,1-.219.719.845.845,0,0,1-1.069.137c-1.032-.584-2.06-1.177-3.1-1.754a1,1,0,0,0-.466-.123q-7.552-.009-15.1-.005a2.956,2.956,0,0,1-2.982-2.394,3.412,3.412,0,0,1-.064-.693q-.005-5.659,0-11.318a3.043,3.043,0,0,1,.855-2.24,2.988,2.988,0,0,1,2.222-.9Q639.847-2144.69,644.059-2144.691Zm10.164,17.9c.005-.1.012-.168.012-.233q0-7.379,0-14.758a1.322,1.322,0,0,0-.023-.272,1.657,1.657,0,0,0-1.7-1.349q-4.424,0-8.848,0-4.063,0-8.125,0a1.645,1.645,0,0,0-1.7,1.646q0,5.833,0,11.666a1.569,1.569,0,0,0,.574,1.221,1.785,1.785,0,0,0,1.249.393q7.639-.009,15.278,0a1.327,1.327,0,0,1,.612.16C652.434-2127.824,653.307-2127.314,654.223-2126.79Zm-10.151-7.089h5.384a.639.639,0,0,1,.632.4.537.537,0,0,1-.119.664,1.015,1.015,0,0,1-.578.219c-1.412.018-2.825.01-4.238.01h-6.407a.672.672,0,0,1-.709-.437.634.634,0,0,1,.625-.85q1.919,0,3.839,0Zm0-3.725q-2.667,0-5.334,0c-.425,0-.664-.185-.719-.536a.606.606,0,0,1,.535-.731,8.486,8.486,0,0,1,.9-.022q4.923,0,9.845,0a1.684,1.684,0,0,1,.321.027.636.636,0,0,1,.525.682.616.616,0,0,1-.612.573c-.814.012-1.628.008-2.442.009h-3.016Z" transform="translate(-632.558 2144.692)" fill="#606060"/>
</svg>
