<svg xmlns="http://www.w3.org/2000/svg" width="23.004" height="23.009" viewBox="0 0 23.004 23.009">
  <path id="Path_53993" data-name="Path 53993" d="M-3142.516,7114.623l-.392-.047c-.285-.033-.579-.067-.861-.118a11.5,11.5,0,0,1-6.076-3.116,11.444,11.444,0,0,1-3.452-6.578c-.038-.244-.07-.494-.1-.735-.014-.108-.027-.218-.042-.326v-1.156l.01-.046c.013-.06.027-.121.035-.189.02-.148.036-.3.051-.443a8.4,8.4,0,0,1,.119-.848,11.59,11.59,0,0,1,4.983-7.42,10.91,10.91,0,0,1,6.2-1.985,11.433,11.433,0,0,1,2.163.211,11.346,11.346,0,0,1,6.943,4.277,10.961,10.961,0,0,1,2.341,8.816,11.218,11.218,0,0,1-3.1,6.087,11.449,11.449,0,0,1-6.6,3.475c-.243.038-.494.07-.736.1l-.327.042Zm5.607-10.44a17.544,17.544,0,0,1-2.842,8.122l-.4.612.708-.182a9.525,9.525,0,0,0,5.195-3.239,9.732,9.732,0,0,0,2.166-5.257l.033-.315h-4.837Zm-14.858.056a9.6,9.6,0,0,0,2.319,5.452,9.378,9.378,0,0,0,5.016,3.02l.681.15-.381-.584a17.716,17.716,0,0,1-1.917-3.889,18.016,18.016,0,0,1-.907-4.2l-.025-.258h-4.811Zm6.408.006a15.177,15.177,0,0,0,3.2,8.087l.226.291.225-.291a15.2,15.2,0,0,0,3.2-8.087l.029-.312h-6.91Zm.916-10.717a9.3,9.3,0,0,0-5.074,3.1,9.546,9.546,0,0,0-2.248,5.37l-.019.24.234.059.01,0a.479.479,0,0,0,.15.027h1.739c.88,0,1.594,0,2.25-.007a.525.525,0,0,0,.456-.4c.028-.148.042-.295.054-.437.01-.1.019-.2.032-.3a17.613,17.613,0,0,1,2.255-6.461c.1-.174.207-.346.314-.522l.153-.251.344-.571Zm4.691.407a17.785,17.785,0,0,1,1.931,3.905,17.992,17.992,0,0,1,.912,4.215l.025.258h4.84l-.035-.316a9.758,9.758,0,0,0-2.584-5.728,9.522,9.522,0,0,0-4.78-2.766l-.706-.178Zm-2.439.013a15.315,15.315,0,0,0-3.168,8.052l-.029.311h6.832l.017-.267a12.89,12.89,0,0,0-1.076-4.494c-.277-.7-1.255-3.024-2.19-3.663l-.222-.151Z" transform="translate(3153.438 -7091.614)" fill="#606060"/>
</svg>
