<svg xmlns="http://www.w3.org/2000/svg" width="23.004" height="23.011" viewBox="0 0 23.004 23.011">
  <path id="Path_53994" data-name="Path 53994" d="M1960.339-1549.612c0-.044-.009-.087-.014-.13-.01-.089-.02-.18-.028-.268a10.966,10.966,0,0,0-.914-3.6,11.5,11.5,0,0,0-6.066-6,10.564,10.564,0,0,0-2.887-.8c-.2-.025-.4-.043-.59-.061l-.3-.029a.5.5,0,0,1-.05-.01l-.039-.008-.02,0h-1.189l-.129.014c-.089.01-.181.02-.271.028a10.877,10.877,0,0,0-3.57.9,11.471,11.471,0,0,0-6.336,6.877,10.522,10.522,0,0,0-.56,2.683,11.311,11.311,0,0,0,2.557,8.266,11.329,11.329,0,0,0,6.085,3.884,11,11,0,0,0,2.757.354c.181,0,.365,0,.547-.014a11.36,11.36,0,0,0,7.491-3.219,11.354,11.354,0,0,0,3.247-5.741,10.387,10.387,0,0,0,.259-1.844.322.322,0,0,1,.007-.035c0-.014.007-.028.01-.042l0-.02v-1.189Zm-11.9,10.565a.537.537,0,0,0-.49.332l-.119-.014c-.2-.024-.414-.048-.619-.078-.174-.026-.353-.064-.526-.1l-.1-.021a.374.374,0,0,1-.049-.021l-.058-.026-.027-.013a.406.406,0,0,0-.186-.054h-.05a1.481,1.481,0,0,1-.479-.113c-.059-.021-.119-.042-.181-.061-.083-.026-.165-.057-.248-.09a.357.357,0,0,0,.13-.2.38.38,0,0,0-.271-.462.375.375,0,0,0-.46.271.363.363,0,0,0-.013.144c-.063-.026-.125-.052-.187-.08a10.332,10.332,0,0,1-2.535-1.663l.474-.475a.371.371,0,0,0,.37.287.373.373,0,0,0,.372-.382.378.378,0,0,0-.283-.363l.671-.67a.369.369,0,0,0,.36.283.369.369,0,0,0,.382-.371.369.369,0,0,0-.284-.371l.514-.514a.573.573,0,0,0,.53.327c.022,0,.044,0,.067,0,.178.107.358.217.533.324a.523.523,0,0,0,.02.521.579.579,0,0,0,.5.293.588.588,0,0,0,.125-.014.568.568,0,0,0,.413-.339l.183.058a6.175,6.175,0,0,0,1.878.295c.141,0,.285-.005.427-.015a7.266,7.266,0,0,0,.73-.1c.119-.02.242-.042.362-.059h0a.569.569,0,0,0,.4.172.61.61,0,0,0,.207-.038.549.549,0,0,0,.371-.441,6.663,6.663,0,0,0,1.767-1.056l2.648,2.648-.116.1a.519.519,0,0,0-.324-.118l-.044,0a.683.683,0,0,0-.347.134.532.532,0,0,0-.159.661h0c-.174.113-.353.229-.531.342-.025,0-.049,0-.072,0a.562.562,0,0,0-.522.332.044.044,0,0,1-.009.009,10.057,10.057,0,0,1-2.5.91.61.61,0,0,0-.364-.127.575.575,0,0,0-.483.276c-.377.036-.75.068-1.112.1l-.115.01,0-.006a1.142,1.142,0,0,0-.165-.234.551.551,0,0,0-.335-.139Zm.4-4.522h-.007a5.459,5.459,0,0,1-5.446-5.446,5.407,5.407,0,0,1,1.6-3.848,5.406,5.406,0,0,1,3.846-1.6h.006a5.458,5.458,0,0,1,5.445,5.445,5.405,5.405,0,0,1-1.6,3.848A5.4,5.4,0,0,1,1948.84-1543.569Zm-.59-12.035a6.442,6.442,0,0,0-5.5,4.063,6.4,6.4,0,0,0,1.015,6.759l-2.639,2.638a10.152,10.152,0,0,1-2.473-5.057,10.225,10.225,0,0,1,.749-6.039,10.324,10.324,0,0,1,4.106-4.639,10.155,10.155,0,0,1,4.744-1.453Zm5.66,10.823a6.389,6.389,0,0,0,1.019-6.75,6.452,6.452,0,0,0-5.51-4.073v-3.734a10.069,10.069,0,0,1,3.652.891,10.24,10.24,0,0,1,4.894,4.578,10.231,10.231,0,0,1,1.11,6.334,10.279,10.279,0,0,1-2.525,5.392Zm-1.679,5.189a.388.388,0,0,1-.4.372.388.388,0,0,1-.365-.394.387.387,0,0,1,.392-.366A.387.387,0,0,1,1952.231-1539.591Zm-5.65-1.137a.392.392,0,0,1-.381.38.391.391,0,0,1-.383-.389.39.39,0,0,1,.386-.374A.392.392,0,0,1,1946.581-1540.728Zm3.758-.007a.389.389,0,0,1,.383-.377.388.388,0,0,1,.378.381.389.389,0,0,1-.377.382A.388.388,0,0,1,1950.339-1540.735Zm2.262.006a.383.383,0,0,1,.385-.383.387.387,0,0,1,.373.386.387.387,0,0,1-.381.378A.385.385,0,0,1,1952.6-1540.729Zm-3.39,1.13a.378.378,0,0,1,.376-.381.377.377,0,0,1,.377.379.378.378,0,0,1-.375.381A.381.381,0,0,1,1949.212-1539.6Zm0-2.264a.379.379,0,0,1,.38-.377.375.375,0,0,1,.374.382.373.373,0,0,1-.379.376A.375.375,0,0,1,1949.212-1541.863Zm2.256,0a.386.386,0,0,1,.388-.381.387.387,0,0,1,.375.383.385.385,0,0,1-.383.375A.385.385,0,0,1,1951.468-1541.859Zm-2.632,1.13a.382.382,0,0,1-.377.381.381.381,0,0,1-.375-.382.38.38,0,0,1,.376-.381A.382.382,0,0,1,1948.836-1540.729Zm3.766-2.264a.373.373,0,0,1,.381-.374.378.378,0,0,1,.377.379.376.376,0,0,1-.382.373A.373.373,0,0,1,1952.6-1542.993Zm-4.893,1.135a.38.38,0,0,1-.382.376.378.378,0,0,1-.376-.381.379.379,0,0,1,.38-.377A.384.384,0,0,1,1947.709-1541.858Zm6.025-.006a.375.375,0,0,1,.38-.375.378.378,0,0,1,.372.383.373.373,0,0,1-.381.374A.372.372,0,0,1,1953.734-1541.865Zm-9.419,1.139a.382.382,0,0,1-.381.378.383.383,0,0,1-.373-.386.383.383,0,0,1,.382-.377A.381.381,0,0,1,1944.315-1540.726Zm1.134-1.132a.382.382,0,0,1-.379.377.382.382,0,0,1-.381-.386.385.385,0,0,1,.385-.372A.383.383,0,0,1,1945.449-1541.858Zm2.26,2.248a.385.385,0,0,1-.377.391.38.38,0,0,1-.38-.375.38.38,0,0,1,.37-.385A.384.384,0,0,1,1947.709-1539.61Z" transform="translate(-1937.336 1560.519)" fill="#606060"/>
</svg>
