<svg xmlns="http://www.w3.org/2000/svg" width="31.498" height="19.788" viewBox="0 0 31.498 19.788">
  <path id="Path_54009" data-name="Path 54009" d="M6818.832,3795.134h-9.021a1.112,1.112,0,0,1-1.233-1.231q0-4.361,0-8.722v-.3h-16.322c-.42,0-.524.1-.524.527q0,7.932,0,15.864a1.1,1.1,0,1,1-2.194.155c0-.053,0-.107,0-.16q0-7.967,0-15.934a2.549,2.549,0,0,1,1.979-2.577,2.766,2.766,0,0,1,.634-.071q8.767-.006,17.533,0a1.133,1.133,0,0,1,.83.369q5.073,5.076,10.147,10.149a1.176,1.176,0,0,1,.374.874c-.005,2.419,0,4.838,0,7.257a1.059,1.059,0,0,1-.617,1.016,1.033,1.033,0,0,1-1.142-.111,1.094,1.094,0,0,1-.439-.935q0-2.93,0-5.861Zm-8.052-2.218h6.358l-6.358-6.359Z" transform="translate(-6789.534 -3782.678)" fill="#a0beb0"/>
</svg>
