<svg xmlns="http://www.w3.org/2000/svg" width="30.359" height="30.367" viewBox="0 0 30.359 30.367">
  <g id="Group_106112" data-name="Group 106112" transform="translate(6168.23 2549.379)">
    <path id="Path_54010" data-name="Path 54010" d="M-6139.846-2499.547c-.213,0-.433-.009-.653-.028a6.74,6.74,0,0,1-6.014-5.284,6.471,6.471,0,0,1,1.472-5.909,17.809,17.809,0,0,1,1.5-1.484l.194-.177,1.359,1.375c-.34.376-.692.763-1.064,1.126a4.766,4.766,0,0,0-1.573,3.568,4.549,4.549,0,0,0,2.577,4.2,4.755,4.755,0,0,0,2.182.555h0a4.8,4.8,0,0,0,2.767-.93,6.071,6.071,0,0,0,.8-.7l.028-.028c.493-.488.988-.987,1.467-1.47.979-.989,1.992-2.011,3.024-2.965a5.007,5.007,0,0,0,1.652-3.557,4.711,4.711,0,0,0-.862-2.842l1.423-1.518a6.282,6.282,0,0,1,1.378,3.024,6.669,6.669,0,0,1-1.989,6.159q-1.362,1.365-2.727,2.726-1.03,1.028-2.059,2.057A6.729,6.729,0,0,1-6139.846-2499.547Zm2.7-10.63a6.359,6.359,0,0,1-1.24-2.493,6.667,6.667,0,0,1,1.9-6.684c1.364-1.394,2.859-2.895,4.706-4.724a6.55,6.55,0,0,1,4.644-1.9,6.78,6.78,0,0,1,6.608,4.954,6.607,6.607,0,0,1-1.8,6.733c-.327.337-.665.675-.993,1l-1.462-1.481.018-.017c.41-.4.834-.822,1.25-1.25a4.744,4.744,0,0,0,.846-5.7,4.725,4.725,0,0,0-4.131-2.428,4.792,4.792,0,0,0-3.351,1.37c-1.777,1.724-3.467,3.429-5.025,5.067a5.264,5.264,0,0,0-1.155,1.94,4.473,4.473,0,0,0,.673,4.134Z" transform="translate(-19.683 -21.394)" fill="#a0beb0"/>
    <path id="Path_54011" data-name="Path 54011" d="M-6148.853-2519.011v-3.656h1.142v3.656Zm3.587-6.337.751-.745,2.39,2.4-.752.751Zm3.744-3.514V-2530h3.65v1.141Zm-26.708-9.519v-1.136h3.66v1.136Zm4.016-5.962.73-.724,2.345,2.334-.752.735Zm5.837-1.378v-3.658h1.134v3.658Z" fill="#a0beb0"/>
  </g>
</svg>
