<svg xmlns="http://www.w3.org/2000/svg" width="8.175" height="28.612" viewBox="0 0 8.175 28.612">
  <path id="Path_53336" data-name="Path 53336" d="M-1102.9,1872.467a4.072,4.072,0,0,0,3.355-3.323,4.05,4.05,0,0,0-2.189-4.328,10.826,10.826,0,0,0-1.443-.466h-.767a1.884,1.884,0,0,1-.243.065,4.1,4.1,0,0,0-3.455,3.659A4.078,4.078,0,0,0-1102.9,1872.467Zm-2.747-4.056a2.051,2.051,0,0,1,2.094-2.005,2.019,2.019,0,0,1,2.005,2.081,2.01,2.01,0,0,1-2.113,2A2.043,2.043,0,0,1-1105.643,1868.411Zm2.062,16.385a4.057,4.057,0,0,0-4.064,4.082,4.083,4.083,0,0,0,4.075,4.084,4.112,4.112,0,0,0,4.093-4.079A4.082,4.082,0,0,0-1103.581,1884.8Zm-.007,6.12a2.052,2.052,0,0,1-2.057-2.045,2.038,2.038,0,0,1,2.059-2.036,2.008,2.008,0,0,1,2.045,2.037A2.025,2.025,0,0,1-1103.588,1890.916Zm.028-16.334a4.085,4.085,0,0,0-4.085,4.137,4.064,4.064,0,0,0,4.086,4.029,4.085,4.085,0,0,0,4.082-4.044A4.114,4.114,0,0,0-1103.56,1874.582Zm-.018,6.126a2.04,2.04,0,0,1-2.067-2.027,2.052,2.052,0,0,1,2.08-2.054,2.024,2.024,0,0,1,2.023,2.067A2.011,2.011,0,0,1-1103.578,1880.708Z" transform="translate(1107.652 -1864.35)" fill="#fff"/>
</svg>
