<svg xmlns="http://www.w3.org/2000/svg" width="26.482" height="26.455" viewBox="0 0 26.482 26.455">
  <path id="Path_53946" data-name="Path 53946" d="M-5083.542,5016.929a13.182,13.182,0,0,1-10.6,12.956,12.731,12.731,0,0,1-12.962-4.695,12.2,12.2,0,0,1-2.767-6.144,13.184,13.184,0,0,1,2.881-10.488,12.633,12.633,0,0,1,8.43-4.71,15.582,15.582,0,0,1,1.741-.122.975.975,0,0,1,1.028.981.978.978,0,0,1-.961,1.048,11,11,0,0,0-4,.76,11.068,11.068,0,0,0-7.018,8.288,11.109,11.109,0,0,0,7.916,12.892,11.052,11.052,0,0,0,12.323-4.549,10.622,10.622,0,0,0,1.917-6.08,11.2,11.2,0,0,0-7.188-10.554,1.065,1.065,0,0,1-.809-.877.965.965,0,0,1,1.3-1.094,13.67,13.67,0,0,1,2.53,1.224,13.339,13.339,0,0,1,5.991,8.767,7.738,7.738,0,0,1,.141.909C-5083.6,5015.936-5083.574,5016.433-5083.542,5016.929Zm-14.665-1q-2.321,0-4.641,0a.994.994,0,0,0-.994.646,1.014,1.014,0,0,0,.958,1.395c1.558.01,3.115,0,4.673,0h.4v.386q0,2.273,0,4.545c0,.73.379,1.162,1.008,1.155a1.014,1.014,0,0,0,1.03-1.144q0-2.289,0-4.577v-.366h.383c1.526,0,3.052.008,4.578-.008a1.487,1.487,0,0,0,.714-.19.973.973,0,0,0,.356-1.156.96.96,0,0,0-.96-.689c-1.567,0-3.136,0-4.7,0h-.367v-.376q0-2.3,0-4.609a1.034,1.034,0,0,0-1-1.121,1.025,1.025,0,0,0-1.036,1.11q0,2.194,0,4.387v.609Z" transform="translate(5110.024 -5003.725)" fill="#606060"/>
</svg>
