<svg xmlns="http://www.w3.org/2000/svg" width="27.264" height="26.166" viewBox="0 0 27.264 26.166">
  <path id="Path_53325" data-name="Path 53325" d="M4577.807,4034.866a2.421,2.421,0,0,0-1.341-4.128l-6.438-.935a.1.1,0,0,1-.07-.051l-2.879-5.834a2.42,2.42,0,0,0-4.341,0l-2.879,5.834a.1.1,0,0,1-.07.051l-6.438.935a2.421,2.421,0,0,0-1.341,4.129l4.659,4.541a.1.1,0,0,1,.026.083l-1.1,6.412a2.42,2.42,0,0,0,3.512,2.552l5.758-3.028a.094.094,0,0,1,.087,0l5.758,3.028a2.42,2.42,0,0,0,3.512-2.552l-1.1-6.412a.094.094,0,0,1,.027-.083Zm-6.979,5.018,1.1,6.412a.093.093,0,0,1-.135.1l-5.758-3.027h0a2.419,2.419,0,0,0-2.253,0l-5.758,3.027a.094.094,0,0,1-.136-.1l1.1-6.412a2.424,2.424,0,0,0-.7-2.143l-4.659-4.541a.093.093,0,0,1,.052-.159l6.438-.936a2.418,2.418,0,0,0,1.822-1.324l2.879-5.833a.08.08,0,0,1,.083-.052.081.081,0,0,1,.084.052l2.879,5.834a2.419,2.419,0,0,0,1.823,1.324l6.438.936a.079.079,0,0,1,.075.063.08.08,0,0,1-.023.1l-4.659,4.541A2.421,2.421,0,0,0,4570.828,4039.883Z" transform="translate(-4551.276 -4022.568)" fill="#606060"/>
</svg>
