<svg xmlns="http://www.w3.org/2000/svg" width="27.264" height="23.175" viewBox="0 0 27.264 23.175">
  <path id="Path_164" data-name="Path 164" d="M646.189-2144.691q5.007,0,10.014,0a3.5,3.5,0,0,1,3.544,2.862,4.1,4.1,0,0,1,.069.822q.007,9.16.005,18.32a1.191,1.191,0,0,1-.26.853,1,1,0,0,1-1.267.163c-1.223-.693-2.441-1.395-3.669-2.079a1.188,1.188,0,0,0-.552-.146q-8.951-.01-17.9-.006a3.5,3.5,0,0,1-3.534-2.838,4.046,4.046,0,0,1-.075-.821q-.007-6.707,0-13.415a3.608,3.608,0,0,1,1.013-2.655,3.541,3.541,0,0,1,2.633-1.061Q641.2-2144.689,646.189-2144.691Zm12.046,21.218c.006-.124.014-.2.014-.276q0-8.745,0-17.491a1.556,1.556,0,0,0-.027-.322,1.963,1.963,0,0,0-2.016-1.6q-5.243,0-10.487,0-4.815,0-9.63,0a1.95,1.95,0,0,0-2.016,1.951q-.005,6.913,0,13.827a1.86,1.86,0,0,0,.681,1.448,2.117,2.117,0,0,0,1.481.466q9.054-.01,18.108,0a1.57,1.57,0,0,1,.725.191C656.116-2124.7,657.15-2124.095,658.236-2123.473Zm-12.031-8.4h6.382a.757.757,0,0,1,.75.471.635.635,0,0,1-.142.786,1.2,1.2,0,0,1-.686.26c-1.674.022-3.348.012-5.023.012h-7.593a.8.8,0,0,1-.84-.518.752.752,0,0,1,.741-1.007q2.275-.006,4.55,0Zm0-4.415q-3.161,0-6.322,0c-.5,0-.787-.219-.852-.636a.718.718,0,0,1,.634-.866,10.053,10.053,0,0,1,1.062-.027q5.834,0,11.668,0a1.969,1.969,0,0,1,.381.032.754.754,0,0,1,.622.809.73.73,0,0,1-.725.68c-.965.014-1.93.009-2.895.01H646.2Z" transform="translate(-632.558 2144.692)" fill="#606060"/>
</svg>
