<svg xmlns="http://www.w3.org/2000/svg" width="26.511" height="26.517" viewBox="0 0 26.511 26.517">
  <path id="Path_53945" data-name="Path 53945" d="M6473.639,2509.985a9.744,9.744,0,0,1,5.466-8.757,6.126,6.126,0,0,1-1.843-5.507,5.956,5.956,0,0,1,2.317-3.885,6.19,6.19,0,0,1,8.041,9.393,9.748,9.748,0,0,1,5.46,8.757Zm1.949-1.782h15.493a.308.308,0,0,0,.008-.069.817.817,0,0,0-.022-.108,7.908,7.908,0,0,0-5.085-5.539.6.6,0,0,0-.388.014,6.245,6.245,0,0,1-4.451.009.7.7,0,0,0-.439-.011,7.922,7.922,0,0,0-4.728,4.54C6475.82,2507.408,6475.72,2507.8,6475.588,2508.2Zm7.756-7.055a4.418,4.418,0,1,0-4.4-4.441A4.421,4.421,0,0,0,6483.344,2501.147Zm16.806,1.05c-.017-.08-.042-.159-.051-.239a9.506,9.506,0,0,0-3.6-6.6c-.56-.454-1.195-.816-1.791-1.216a6.2,6.2,0,0,0-5.79-10.484,6.108,6.108,0,0,0-4.6,5.148l1.7.407a4.421,4.421,0,1,1,4.843,4.844c.136.568.271,1.136.418,1.754.453-.126.9-.26,1.349-.372a.8.8,0,0,1,.441-.01,7.909,7.909,0,0,1,4.729,4.54c.154.369.255.76.394,1.182h-7.521c.106.1.171.159.233.222.439.445.887.882,1.31,1.341a.534.534,0,0,0,.44.2q3.742-.01,7.482,0Z" transform="translate(-6473.639 -2483.468)" fill="#606060"/>
</svg>
