<svg xmlns="http://www.w3.org/2000/svg" width="25.88" height="27.574" viewBox="0 0 25.88 27.574">
  <path id="Path_53947" data-name="Path 53947" d="M3797.068,2630.056a2.294,2.294,0,0,1-.328,1.145c-.435.757-.868,1.516-1.316,2.266a2.43,2.43,0,0,1-2.58,1.164c-.8-.138-1.6-.261-2.4-.392a.97.97,0,0,0-.709.136c-.213.136-.434.261-.657.38a.957.957,0,0,0-.455.537q-.419,1.119-.846,2.236a2.456,2.456,0,0,1-2.451,1.687q-1.188,0-2.376,0a2.454,2.454,0,0,1-2.433-1.684c-.28-.739-.564-1.477-.839-2.219a1.013,1.013,0,0,0-.489-.579c-.207-.109-.412-.223-.609-.35a1.068,1.068,0,0,0-.8-.137c-.8.137-1.609.287-2.418.393a2.35,2.35,0,0,1-2.457-1.125c-.5-.787-.963-1.594-1.4-2.417a2.3,2.3,0,0,1,.22-2.607c.518-.688,1.078-1.344,1.626-2.009a.989.989,0,0,0,.247-.7,4.609,4.609,0,0,1,0-.589,1.222,1.222,0,0,0-.335-.934c-.5-.589-.981-1.194-1.466-1.8a2.429,2.429,0,0,1-.223-2.853q.618-1.08,1.246-2.153a2.47,2.47,0,0,1,2.676-1.229c.8.14,1.6.276,2.4.386a1.16,1.16,0,0,0,.582-.106,8.461,8.461,0,0,0,.761-.427.887.887,0,0,0,.4-.484q.432-1.146.871-2.288a2.439,2.439,0,0,1,2.421-1.668q1.217,0,2.433,0a2.429,2.429,0,0,1,2.382,1.641c.289.756.579,1.512.861,2.271a.987.987,0,0,0,.479.563c.223.118.442.247.658.379a.966.966,0,0,0,.693.121c.855-.141,1.709-.3,2.569-.407a2.278,2.278,0,0,1,2.331,1.077c.521.808,1,1.645,1.446,2.5a2.282,2.282,0,0,1-.217,2.559c-.507.68-1.059,1.327-1.6,1.979a1.091,1.091,0,0,0-.282.8c.014.24.007.481,0,.722a.9.9,0,0,0,.22.61c.528.641,1.049,1.286,1.575,1.929A2.488,2.488,0,0,1,3797.068,2630.056Zm-3.812,2.978a.851.851,0,0,0,.8-.447q.609-1.052,1.218-2.1a.853.853,0,0,0-.091-1.145q-.762-.935-1.525-1.871a2.311,2.311,0,0,1-.56-1.286c-.03-.365-.017-.733-.027-1.1a2.564,2.564,0,0,1,.627-1.765c.515-.618,1.019-1.245,1.526-1.87a.815.815,0,0,0,.091-1.019q-.628-1.095-1.264-2.186a.815.815,0,0,0-.9-.425c-.732.114-1.466.216-2.191.362a2.817,2.817,0,0,1-2.2-.389c-.143-.094-.294-.175-.444-.256a2.564,2.564,0,0,1-1.217-1.424c-.273-.742-.559-1.479-.841-2.218a.845.845,0,0,0-.922-.634q-1.188,0-2.376,0a.845.845,0,0,0-.921.634q-.437,1.143-.873,2.287a2.42,2.42,0,0,1-1.025,1.256c-.325.2-.653.388-.99.563a2.275,2.275,0,0,1-1.417.242q-1.266-.2-2.531-.4a.843.843,0,0,0-.985.459q-.61,1.051-1.218,2.1a.823.823,0,0,0,.093,1.081c.491.6.979,1.212,1.48,1.809a2.654,2.654,0,0,1,.654,1.833c-.006.228,0,.456,0,.684a2.558,2.558,0,0,1-.609,1.7c-.521.629-1.033,1.267-1.55,1.9a.81.81,0,0,0-.1.986q.642,1.131,1.3,2.255a.8.8,0,0,0,.872.4c.725-.115,1.453-.219,2.172-.365a2.835,2.835,0,0,1,2.251.4c.152.1.317.185.477.275a2.5,2.5,0,0,1,1.14,1.347c.286.764.58,1.525.873,2.287a.819.819,0,0,0,.868.6h2.414a.841.841,0,0,0,.932-.642q.436-1.144.872-2.287a2.44,2.44,0,0,1,1.067-1.268l.768-.455a2.331,2.331,0,0,1,1.511-.334c.458.058.913.139,1.369.211Zm-9.111-11.66a4.054,4.054,0,1,1-4.053,4.042A4.051,4.051,0,0,1,3784.146,2621.374Zm2.428,4.058a2.432,2.432,0,1,0-2.431,2.424A2.435,2.435,0,0,0,3786.574,2625.431Zm-2.476,6.649a.822.822,0,0,0-.766-1.037,5.579,5.579,0,0,1-3.134-1.538,5.5,5.5,0,0,1-1.5-2.51.864.864,0,0,0-.583-.666.764.764,0,0,0-.8.2.805.805,0,0,0-.192.859,7.243,7.243,0,0,0,4.218,4.769,6.811,6.811,0,0,0,1.939.513A.819.819,0,0,0,3784.1,2632.08Zm.139-13.2a.805.805,0,0,0,.613.9c.117.027.237.039.354.065a5.6,5.6,0,0,1,4.4,4.051.827.827,0,0,0,1.031.623.81.81,0,0,0,.532-1.061,7.22,7.22,0,0,0-4.214-4.773,6.593,6.593,0,0,0-1.872-.5A.813.813,0,0,0,3784.237,2618.884Z" transform="translate(-3771.206 -2611.64)" fill="#606060"/>
</svg>
