<svg xmlns="http://www.w3.org/2000/svg" width="17.802" height="19.09" viewBox="0 0 17.802 19.09">
  <path id="Path_53944" data-name="Path 53944" d="M-7455.921,6386.2a9.712,9.712,0,0,1,6.071-9.011c.3-.121.6-.219.91-.316a.687.687,0,0,1,.79.255.689.689,0,0,1-.006.821,7.971,7.971,0,0,0-1.3,2.936,8.17,8.17,0,0,0,2,7.482,8.035,8.035,0,0,0,4.635,2.558,8.163,8.163,0,0,0,3.749-.178.7.7,0,0,1,.926.461.7.7,0,0,1-.119.626,9.663,9.663,0,0,1-3.256,2.9,9.639,9.639,0,0,1-4.125,1.179,9.727,9.727,0,0,1-10.027-7.525A9.53,9.53,0,0,1-7455.921,6386.2Zm5.612-7.231a8.282,8.282,0,0,0-4.194,7.89,8.319,8.319,0,0,0,6.495,7.479,8.189,8.189,0,0,0,3.89-.065,8.3,8.3,0,0,0,3.452-1.836c-.055,0-.08,0-.1,0a8.816,8.816,0,0,1-1.68-.022,9.034,9.034,0,0,1-3.381-1.061,10.17,10.17,0,0,1-5.208-7.894,8.993,8.993,0,0,1,.452-3.752C-7450.5,6379.459-7450.4,6379.216-7450.309,6378.968Zm5.565-1.655a.689.689,0,0,1,.579.38c.252.459.5.921.758,1.378a.478.478,0,0,0,.178.175c.466.262.939.512,1.405.774a.68.68,0,0,1,.275.958.876.876,0,0,1-.3.285c-.457.264-.925.509-1.385.767a.466.466,0,0,0-.17.168c-.255.453-.5.911-.751,1.369a.7.7,0,0,1-.648.413.7.7,0,0,1-.639-.411q-.371-.687-.75-1.369a.464.464,0,0,0-.169-.17c-.457-.256-.917-.507-1.378-.756a.691.691,0,0,1-.4-.643.69.69,0,0,1,.4-.633c.464-.251.928-.5,1.388-.761a.41.41,0,0,0,.154-.155c.258-.46.508-.925.762-1.387A.738.738,0,0,1-7444.744,6377.313Zm-1.265,3.324c.185.1.35.2.519.283a.889.889,0,0,1,.406.407c.085.169.181.334.282.52l.154-.28c.3-.547.22-.472.782-.778.087-.047.172-.1.271-.152-.166-.092-.311-.182-.464-.253a.969.969,0,0,1-.488-.486c-.073-.155-.164-.3-.255-.468-.1.186-.2.352-.283.521a.889.889,0,0,1-.407.405C-7445.66,6380.441-7445.824,6380.537-7446.008,6380.638Zm.64,6.251a.7.7,0,0,1,.394-.627c.38-.208.754-.43,1.144-.619a1.141,1.141,0,0,0,.557-.554c.184-.38.4-.744.6-1.115a.7.7,0,0,1,.646-.4.705.705,0,0,1,.655.4c.25.461.5.92.756,1.379a.36.36,0,0,0,.133.132c.473.264.951.519,1.425.783a.7.7,0,0,1,.334.878.717.717,0,0,1-.344.376c-.466.254-.934.507-1.4.767a.439.439,0,0,0-.162.162c-.256.458-.507.917-.756,1.379a.7.7,0,0,1-.641.407.7.7,0,0,1-.641-.409q-.374-.692-.756-1.378a.446.446,0,0,0-.162-.163c-.464-.259-.931-.512-1.4-.766A.706.706,0,0,1-7445.369,6386.889Zm3.348-1.205c-.1.182-.195.341-.275.506a.908.908,0,0,1-.427.428c-.167.082-.326.177-.5.275.188.1.357.2.529.289a.855.855,0,0,1,.385.382c.078.154.164.3.248.457a.823.823,0,0,0,.051.072c.09-.165.18-.313.255-.469a.961.961,0,0,1,.472-.472c.158-.075.308-.166.477-.258-.2-.111-.382-.213-.567-.31a.79.79,0,0,1-.338-.34C-7441.811,6386.061-7441.912,6385.883-7442.021,6385.684Z" transform="translate(7455.921 -6376.835)" fill="#fff"/>
</svg>
