<svg xmlns="http://www.w3.org/2000/svg" width="19.155" height="32.746" viewBox="0 0 19.155 32.746">
  <path id="Path_54004" data-name="Path 54004" d="M6110.912,517.274a2.509,2.509,0,0,1,1.283.847,51.25,51.25,0,0,0,8,6.836,4.938,4.938,0,0,1,.645.523,1.01,1.01,0,0,1,.034,1.56,15.059,15.059,0,0,1-1.274,1.168q-3.105,2.6-6.223,5.194c-.049.041-.1.083-.181.154.118.089.22.173.329.247q3.508,2.385,7.02,4.766c1.161.783,1.239,1.411.28,2.417a104.8,104.8,0,0,1-8.452,8.032c-.319.267-.646.526-.986.766a1.1,1.1,0,0,1-1.758-.606,2.718,2.718,0,0,1-.125-.754c-.027-2.993-.058-5.987-.056-8.98,0-1.143.083-2.286.126-3.429,0-.116,0-.231,0-.428-.385.29-.729.532-1.054.8-1.183.965-2.351,1.95-3.546,2.9a1.989,1.989,0,0,1-.883.389.9.9,0,0,1-.945-.528,1,1,0,0,1,.043-1.093,2.41,2.41,0,0,1,.515-.519q2.551-1.963,5.112-3.913c.041-.031.077-.067.143-.126-.308-.229-.6-.437-.884-.657-1.485-1.151-2.973-2.3-4.448-3.462a4.025,4.025,0,0,1-1.3-1.514v-.321c.375-.828.9-.988,1.685-.512.091.055.179.115.267.176l4.884,3.456c.163.115.328.227.535.369.016-.316.042-.579.042-.842.006-3,0-6,.012-9.006,0-.94.042-1.88.045-2.819a.989.989,0,0,1,.73-1.087ZM6118.584,540l-6.656-4.7c-.066,3.709-.131,7.341-.2,10.973l.09.029C6114.111,544.263,6116.456,542.279,6118.584,540Zm-.087-13.768a58.514,58.514,0,0,1-6.812-5.852c.122,3.7.241,7.3.361,10.969A72.4,72.4,0,0,0,6118.5,526.236Z" transform="translate(-6102.328 -517.274)" fill="#38a271"/>
</svg>
