<svg xmlns="http://www.w3.org/2000/svg" xmlns:xlink="http://www.w3.org/1999/xlink" width="54.486" height="34.185" viewBox="0 0 54.486 34.185">
  <defs>
    <filter id="Path_54003" x="0" y="0" width="54.486" height="34.185" filterUnits="userSpaceOnUse">
      <feOffset dy="3" input="SourceAlpha"/>
      <feGaussianBlur stdDeviation="3" result="blur"/>
      <feFlood flood-opacity="0.302"/>
      <feComposite operator="in" in2="blur"/>
      <feComposite in="SourceGraphic"/>
    </filter>
  </defs>
  <g transform="matrix(1, 0, 0, 1, 0, 0)" filter="url(#Path_54003)">
    <path id="Path_54003-2" data-name="Path 54003" d="M3989.419,1219.2a48.778,48.778,0,0,0,5.222.039,4.312,4.312,0,0,0,4.229-4.539c-.018-.647.009-1.3.015-1.967a34.278,34.278,0,0,1,9.124.093c-.008.77-.018,1.52-.023,2.27a4.042,4.042,0,0,0,1.018,2.824,4.856,4.856,0,0,0,3.627,1.564c1.388.049,2.779.054,4.168.044a6.459,6.459,0,0,0,1.419-.177,4.23,4.23,0,0,0,3.428-4.3c.009-.991,0-1.982.035-2.972a4.118,4.118,0,0,0-.982-2.908,11.618,11.618,0,0,0-1.6-1.57,15.241,15.241,0,0,0-4.129-2.235,31.079,31.079,0,0,0-9.492-1.947,33.6,33.6,0,0,0-13.658,1.808,12.987,12.987,0,0,0-5.226,3.189,4.377,4.377,0,0,0-1.35,2.908c-.026,1.218-.056,2.438-.034,3.655a3.947,3.947,0,0,0,2.477,3.765A4.833,4.833,0,0,0,3989.419,1219.2Zm-2.215-4.137c-.013-1.229-.009-2.46.032-3.688a2.725,2.725,0,0,1,1.08-1.873,12.429,12.429,0,0,1,4.244-2.412,29.92,29.92,0,0,1,10.254-1.747,31.36,31.36,0,0,1,11.1,1.751,14.155,14.155,0,0,1,3.812,1.958,11.126,11.126,0,0,1,1.528,1.5,1.964,1.964,0,0,1,.439,1.4c-.028,1.035-.026,2.072-.039,3.108a2.169,2.169,0,0,1-1.84,2.353,4.835,4.835,0,0,1-1.149.13c-1.275,0-2.55-.014-3.825-.035a3.6,3.6,0,0,1-1.768-.443,2.063,2.063,0,0,1-1.095-1.946q.019-1.793.038-3.586c0-.123,0-.247,0-.435-1.323-.165-2.626-.368-3.937-.484a36.217,36.217,0,0,0-8.719.318c-.349.053-.464.157-.459.523.016,1.127-.016,2.254-.026,3.381a2.2,2.2,0,0,1-1.794,2.33,4.537,4.537,0,0,1-1.114.142c-1.309,0-2.619-.015-3.928-.038a3.535,3.535,0,0,1-1.825-.487A1.952,1.952,0,0,1,3987.2,1215.063Z" transform="translate(-3976.2 -1197.35)" fill="#fff"/>
  </g>
</svg>
