<svg xmlns="http://www.w3.org/2000/svg" width="26.664" height="44.754" viewBox="0 0 26.664 44.754">
  <path id="Path_54008" data-name="Path 54008" fill="#38A271" d="M8026.5,2258.225c0-1.285-.007-2.571,0-3.856a8.634,8.634,0,0,1,17.1-1.587,7.9,7.9,0,0,1,.158,1.55q.018,7.047,0,14.094a8.542,8.542,0,0,1-7.171,8.31,8.636,8.636,0,0,1-9.924-6.852,7.565,7.565,0,0,1-.158-1.483c-.017-2.3-.01-4.609-.008-6.914a1.069,1.069,0,0,1,1.15-1.173q5.884-.01,11.767,0a2.1,2.1,0,0,1,.211.023v2.043h-11c-.015.132-.033.216-.033.3,0,1.961-.064,3.925.024,5.883a6.37,6.37,0,0,0,3.241,5.263.914.914,0,0,0,.153.055v-3.489h2.106v.73c0,1.075.008,2.15,0,3.224,0,.24.079.368.306.368.559,0,1.118-.014,1.7-.024v-4.293h2.105v3.522a6.333,6.333,0,0,0,1.586-1.225,6.255,6.255,0,0,0,1.841-4.391c.009-4.709.054-9.419-.023-14.126a6.245,6.245,0,0,0-3.261-5.316.587.587,0,0,0-.124-.035v3.479h-2.112v-.356c0-1.2-.007-2.394,0-3.59,0-.235-.068-.369-.3-.369-.559,0-1.118.013-1.714.021v4.3h-2.1v-3.524a6.239,6.239,0,0,0-1.748,1.391,6.341,6.341,0,0,0-1.685,4.355c0,1.208,0,2.415,0,3.623v.4h-2.081C8026.516,2258.438,8026.5,2258.332,8026.5,2258.225Zm21.142,7.079c-.79-.046-1.585-.013-2.395-.013v2.066c.311,0,.576.009.841,0,.2-.009.276.056.277.262a13.2,13.2,0,0,1-.362,3.424,11.24,11.24,0,0,1-22.1-3.423c.007-.2.078-.272.275-.264.273.012.548,0,.833,0v-2.087c-.783,0-1.536-.031-2.285.01a1.039,1.039,0,0,0-1.041,1.111c-.019.564-.006,1.13-.007,1.7a13.081,13.081,0,0,0,1.679,6.615,13.311,13.311,0,0,0,24.938-6.089c.012-.808.028-1.615.044-2.423A.828.828,0,0,0,8047.646,2265.3Zm-11.4,17.989h-2.1v5.239h-6.9v2.064h15.794v-2.08h-6.791Z" transform="translate(-8021.677 -2245.842)"/>
</svg>
