<svg xmlns="http://www.w3.org/2000/svg" width="35.558" height="28.208" viewBox="0 0 35.558 28.208">
  <path id="Path_54006" data-name="Path 54006" d="M5062.412,677.372a2.745,2.745,0,0,0-.074-.7,2.164,2.164,0,0,0-3.539-1.037c-2.77,2.334-5.56,4.643-8.347,6.956a.58.58,0,0,1-.341.119c-1.468.008-2.936.005-4.4,0a3.006,3.006,0,0,0-3.112,3.1q0,3.343,0,6.686a3.518,3.518,0,0,0,.035.583,3,3,0,0,0,3.04,2.557c1.481,0,2.963,0,4.444,0a.551.551,0,0,1,.324.113q2.458,2.034,4.907,4.081c1.19.991,2.376,1.986,3.573,2.968a2.042,2.042,0,0,0,1.861.411,2.142,2.142,0,0,0,1.634-2.2q0-5.919,0-11.838T5062.412,677.372Zm-2.589,22.821c-.072-.054-.122-.089-.168-.128l-8.037-6.7a1.367,1.367,0,0,0-.916-.31q-2.475.006-4.949,0c-.434,0-.571-.134-.571-.563q0-3.323,0-6.646c0-.406.143-.548.545-.548,1.644,0,3.286,0,4.929,0a1.535,1.535,0,0,0,1.037-.37q3.961-3.308,7.928-6.608c.056-.046.113-.089.2-.159Zm17.914-7.432a1.291,1.291,0,1,1-1.8,1.85c-.607-.592-1.2-1.2-1.8-1.8l-1.8-1.8c-.06.055-.113.1-.164.152q-1.693,1.691-3.385,3.384a1.3,1.3,0,0,1-1.281.409,1.287,1.287,0,0,1-.693-2.078c.148-.174.317-.33.479-.492l3.041-3.043c.051-.052.1-.105.16-.167-.056-.06-.1-.114-.155-.165q-1.714-1.714-3.427-3.429a1.288,1.288,0,0,1,.4-2.124,1.2,1.2,0,0,1,1.321.207c.318.279.608.59.908.89q1.316,1.312,2.628,2.627a2.071,2.071,0,0,1,.141.178c.088-.084.142-.133.193-.185q1.7-1.7,3.4-3.4a1.287,1.287,0,0,1,1.9-.005,1.268,1.268,0,0,1,.03,1.711c-.282.316-.592.607-.891.907q-1.312,1.315-2.627,2.629c-.046.047-.091.1-.146.155.056.059.1.113.155.164Q5076.031,691.053,5077.737,692.761Z" transform="translate(-5042.594 -675.084)"/>
</svg>
