<svg xmlns="http://www.w3.org/2000/svg" width="33.744" height="44.754" viewBox="0 0 33.744 44.754">
  <path id="Path_54007" data-name="Path 54007" d="M7477.388,2250.439l-32.354,32.354-1.39-1.386L7476,2249.046Zm-25.2,16.325a22.916,22.916,0,0,0,.458,2.4l1.887-.811a21.918,21.918,0,0,1-.3-2.508c-.029-4.543-.015-9.087-.011-13.63a7.629,7.629,0,0,1,.061-.962,6.655,6.655,0,0,1,6.027-5.691,6.575,6.575,0,0,1,6.846,5.177,20.781,20.781,0,0,1,.169,2.916c.007.138.015.276.022.415h2.147a27.861,27.861,0,0,0-.245-3.651,8.629,8.629,0,0,0-13.418-5.432,8.34,8.34,0,0,0-3.714,7.184c-.025,3.81-.011,7.62,0,11.431C7452.119,2264.657,7452.1,2265.716,7452.193,2266.764Zm21.628-4.172c0-.019-.019-.037-.038-.072h-2.035c0,.164-.006.3,0,.427a15.912,15.912,0,0,0,.134,3.222,11.214,11.214,0,0,1-15.294,10.222c-.6-.229-1.18-.5-1.8-.767l-1.1,1.789c.174.1.314.186.459.264a12.682,12.682,0,0,0,8.771,1.329,13,13,0,0,0,10.5-9.823C7474.043,2267.022,7473.8,2264.8,7473.821,2262.592Zm-12.064,18.427h-2.119v5.09h-6.915v2.085h15.825v-2.1h-6.792Zm-1.407-8.584a20.022,20.022,0,0,1-2.156-.32l-.8,1.865a1.6,1.6,0,0,0,.149.081c.083.033.166.063.25.09a8.516,8.516,0,0,0,5.592-.082,8.37,8.37,0,0,0,5.829-7.3,37.747,37.747,0,0,0,.066-4.027c0-.029-.026-.057-.043-.092h-2.053c0,.173,0,.315,0,.457-.007,1.144.071,2.3-.037,3.431A6.559,6.559,0,0,1,7460.349,2272.434Zm-12.223-1.99c.275.68.63,1.328.955,2l1.815-.982a.387.387,0,0,0-.007-.1c-.033-.07-.07-.138-.106-.206a10.872,10.872,0,0,1-1.362-4.721c-.049-1.219-.032-2.441-.045-3.662,0-.128-.011-.256-.018-.387h-2.039c-.01.1-.026.189-.026.275,0,1.255-.007,2.51.018,3.764A11.213,11.213,0,0,0,7448.126,2270.445Z" transform="translate(-7443.644 -2243.441)" fill="#000"/>
</svg>
