<svg xmlns="http://www.w3.org/2000/svg" width="35.278" height="28.208" viewBox="0 0 35.278 28.208">
  <path id="Path_54005" data-name="Path 54005" d="M5781.743,663.6a2.174,2.174,0,0,0-3.68-1.715q-4.047,3.4-8.115,6.765a1.171,1.171,0,0,1-.678.246c-1.383.022-2.767.009-4.15.012a3.012,3.012,0,0,0-3.168,3.129q-.02,3.352,0,6.7a3.01,3.01,0,0,0,3.123,3.094c1.383.005,2.767.009,4.15-.005a1.079,1.079,0,0,1,.759.276q4.047,3.395,8.106,6.776a2.213,2.213,0,0,0,1.662.582,2.155,2.155,0,0,0,1.988-2.318q.006-5.9,0-11.792Q5781.742,669.48,5781.743,663.6Zm-2.6,22.745c-.118-.081-.213-.136-.3-.205q-3.855-3.215-7.707-6.436a1.8,1.8,0,0,0-1.244-.462c-1.571.018-3.143.007-4.714.006-.519,0-.652-.126-.653-.634q0-3.251,0-6.5c0-.487.138-.619.627-.619,1.585,0,3.17-.009,4.755,0a1.771,1.771,0,0,0,1.212-.443q3.816-3.2,7.643-6.386c.1-.085.207-.167.377-.3Zm18.075-11.395a18.7,18.7,0,0,1-2.085,9.359,13.579,13.579,0,0,1-3.494,4.079,1.306,1.306,0,0,1-1.871-.132,1.286,1.286,0,0,1,.237-1.862,12.272,12.272,0,0,0,4.5-8.791,18.541,18.541,0,0,0-.709-7.817,11.3,11.3,0,0,0-3.614-5.287c-.094-.077-.19-.15-.278-.233a1.289,1.289,0,0,1,1.671-1.961,13.526,13.526,0,0,1,2.779,2.9,15.735,15.735,0,0,1,2.716,7.625C5797.163,673.68,5797.191,674.529,5797.219,674.954Zm-6.84.456a13.934,13.934,0,0,1-1.785,6.965,10.516,10.516,0,0,1-2.125,2.571,1.284,1.284,0,0,1-1.765-1.865c2.338-2.131,3.077-4.866,3.042-7.909a10.2,10.2,0,0,0-1.6-5.823,15.619,15.619,0,0,0-1.418-1.645,1.34,1.34,0,0,1-.212-1.632,1.258,1.258,0,0,1,1.472-.543,1.818,1.818,0,0,1,.6.383,11.32,11.32,0,0,1,3.548,6.887C5790.264,673.663,5790.3,674.54,5790.378,675.41Z" transform="translate(-5761.941 -661.266)" fill="#38a271"/>
</svg>
