<svg xmlns="http://www.w3.org/2000/svg" width="25.995" height="26" viewBox="0 0 25.995 26">
  <path id="Path_54016" data-name="Path 54016" d="M2975.075,1488.027a9.554,9.554,0,0,1,5.36-8.586,6.008,6.008,0,0,1-1.807-5.4,5.843,5.843,0,0,1,2.272-3.81,6.07,6.07,0,0,1,7.885,9.21,9.557,9.557,0,0,1,5.353,8.586Zm1.911-1.747h15.191a.345.345,0,0,0,.008-.068.822.822,0,0,0-.022-.106,7.752,7.752,0,0,0-4.986-5.431.59.59,0,0,0-.381.013,6.125,6.125,0,0,1-4.364.009.676.676,0,0,0-.43-.011,7.767,7.767,0,0,0-4.636,4.451C2977.214,1485.5,2977.116,1485.885,2976.986,1486.28Zm7.6-6.918a4.332,4.332,0,1,0-4.316-4.355A4.336,4.336,0,0,0,2984.591,1479.362Zm16.479,1.029a2.322,2.322,0,0,1-.049-.235,9.323,9.323,0,0,0-3.526-6.471c-.55-.445-1.172-.8-1.756-1.192a6.075,6.075,0,0,0-5.677-10.28,5.988,5.988,0,0,0-4.507,5.048l1.671.4a4.335,4.335,0,1,1,4.749,4.75l.41,1.72c.444-.124.881-.255,1.323-.365a.783.783,0,0,1,.432-.009,7.755,7.755,0,0,1,4.637,4.452c.151.362.25.745.387,1.159h-7.375c.1.1.167.156.228.217.43.436.869.865,1.284,1.315a.524.524,0,0,0,.432.2q3.668-.009,7.336,0Z" transform="translate(-2975.075 -1462.027)" fill="#fff"/>
</svg>
