<svg xmlns="http://www.w3.org/2000/svg" width="30.088" height="30.088" viewBox="0 0 30.088 30.088">
  <path id="Path_54017" data-name="Path 54017" d="M521.165,2204.629a15.044,15.044,0,1,1,10.638-4.406A14.946,14.946,0,0,1,521.165,2204.629Zm0-28.355a13.312,13.312,0,1,0,13.312,13.312A13.327,13.327,0,0,0,521.165,2176.273Zm.02,20.11a1,1,0,0,1-.274-.04.913.913,0,0,1-.638-.957c0-.815,0-1.644,0-2.446q0-.521,0-1.042v-1.418h-1.057l-1.159,0-1.156,0c-.6,0-1.1,0-1.561-.007a1,1,0,0,1-.81-.376.867.867,0,0,1-.122-.777.93.93,0,0,1,.965-.633q.7,0,1.407,0h3.492v-1.04q0-.575,0-1.151c0-.9,0-1.835,0-2.751a.893.893,0,0,1,1.585-.629,1.022,1.022,0,0,1,.205.712q0,1.389,0,2.777v2.034l.56.028.131.008c.1.006.189.012.289.012h2.3q.8,0,1.6,0a.9.9,0,0,1,1,.724.886.886,0,0,1-.149.705.752.752,0,0,1-.528.323c-.347.034-.7.039-1,.039l-.352,0-.359,0h-.128c-.368,0-.736,0-1.107,0h-2.21l-.025.563c0,.049,0,.095-.007.138-.005.1-.01.189-.011.287q0,.651,0,1.3c0,.864,0,1.757-.005,2.633A.907.907,0,0,1,521.185,2196.384Z" transform="translate(-506.121 -2174.541)" fill="#fff"/>
</svg>
