<svg xmlns="http://www.w3.org/2000/svg" width="19.655" height="19.659" viewBox="0 0 19.655 19.659">
  <path id="Path_54025" data-name="Path 54025" d="M210.11,628.644a1.786,1.786,0,0,0-1.822-1.384q-5.264,0-10.528,0a2.456,2.456,0,0,0-.5.05,1.814,1.814,0,0,0-1.4,1.855c.017,1.751,0,3.5,0,5.254s0,3.474,0,5.211a2.373,2.373,0,0,0,.047.54,1.755,1.755,0,0,0,1.792,1.387q5.319.008,10.637,0a1.782,1.782,0,0,0,1.82-1.845q.005-5.265,0-10.53A2.394,2.394,0,0,0,210.11,628.644Zm-1.764,11.109H197.685V629.079h10.661Zm7.172-5.432a1.774,1.774,0,0,1-1.393,1.832,3.76,3.76,0,0,1-.757.053c-.47.008-.94,0-1.422,0v-1.8h1.76V623.722H203.021v1.759h-1.77a.3.3,0,0,1-.03-.092c0-.632-.019-1.266.025-1.9a1.711,1.711,0,0,1,1.642-1.571c1.1-.028,2.208-.015,3.312-.016q3.727,0,7.454,0a1.765,1.765,0,0,1,1.818,1.409,3.343,3.343,0,0,1,.044.693Q215.52,629.166,215.517,634.322Z" transform="translate(-195.863 -621.904)" fill="#606060"/>
</svg>
