<svg xmlns="http://www.w3.org/2000/svg" width="19.655" height="19.699" viewBox="0 0 19.655 19.699">
  <path id="Path_54024" data-name="Path 54024" d="M3660.99,1471.763a1.1,1.1,0,0,1-.545,1.293,14.3,14.3,0,0,1-2.187.921,9.844,9.844,0,1,1-4.984-19.042c.529-.126,1.075-.181,1.613-.269h1.385c.53.086,1.063.152,1.587.262a10.381,10.381,0,0,1,2.572.921,1.119,1.119,0,0,1-.323,2.115,1.348,1.348,0,0,1-.732-.139,8.305,8.305,0,0,0-4.271-.958,7.669,7.669,0,1,0,4.162,14.378,1.368,1.368,0,0,1,.854-.2A1,1,0,0,1,3660.99,1471.763Zm4.01-8.094c-1.065-1.049-2.115-2.114-3.175-3.168a1.083,1.083,0,1,0-1.533,1.527c.389.4.785.786,1.176,1.18.056.056.105.118.193.216h-4.82c-.119,0-.24,0-.358.01a.98.98,0,0,0-.882.74,1.061,1.061,0,0,0,1.064,1.427c1.555.008,3.11,0,4.666,0h.274l.025.062-1.341,1.335a1.051,1.051,0,0,0-.348.9,1.065,1.065,0,0,0,.748.922,1.038,1.038,0,0,0,1.145-.3c1.054-1.048,2.085-2.121,3.164-3.143A1.206,1.206,0,0,0,3665,1463.669Z" transform="translate(-3645.698 -1454.667)" fill="#d92626"/>
</svg>
