<svg xmlns="http://www.w3.org/2000/svg" width="16.202" height="16.632" viewBox="0 0 16.202 16.632">
  <path id="Path_54032" data-name="Path 54032" d="M-237.868,712.21a.663.663,0,0,0-.664-.406H-242.4c0-.335,0-.654,0-.973a1.052,1.052,0,0,0-.379-.847,3.38,3.38,0,0,0-.563-.3h-5.211c-.008.007-.014.019-.023.021a1.158,1.158,0,0,0-.916,1.247c0,.28,0,.56,0,.847-.062,0-.1.007-.147.007h-2.067c-.553,0-1.107,0-1.66,0a.618.618,0,0,0-.653.6.612.612,0,0,0,.647.607c.13,0,.26,0,.391,0h13.577c.358,0,.717.011,1.073-.016A.565.565,0,0,0-237.868,712.21Zm-5.748-.42h-4.66V710.9h4.66Zm3.332,6.126q0,.814,0,1.628h0q0,2.336,0,4.672a2.023,2.023,0,0,1-2.035,2.089q-3.623.017-7.246,0a2,2,0,0,1-2-1.665,3.6,3.6,0,0,1-.039-.7q0-4.526,0-9.052a.673.673,0,0,1,.348-.695.587.587,0,0,1,.849.536c0,1.172,0,2.344,0,3.516q0,3,0,5.991a.867.867,0,0,0,.913.907q3.582,0,7.165,0a.848.848,0,0,0,.88-.882q0-4.713,0-9.426a.614.614,0,0,1,.458-.664.554.554,0,0,1,.706.55Q-240.282,716.321-240.284,717.916Zm-4.46,3.042q0-.732,0-1.465,0-1.839,0-3.678a1.16,1.16,0,0,1,.038-.336.557.557,0,0,1,.551-.377.578.578,0,0,1,.513.431,1.086,1.086,0,0,1,.025.242q0,3.726,0,7.453a.98.98,0,0,1-.047.318.553.553,0,0,1-.592.358.588.588,0,0,1-.486-.587C-244.745,722.531-244.743,721.745-244.743,720.958Zm-2.348-2.744q0,.651,0,1.3,0,1.871,0,3.743a.9.9,0,0,1-.036.271.562.562,0,0,1-.549.38.58.58,0,0,1-.518-.445,1.066,1.066,0,0,1-.024-.226q0-3.751,0-7.5a.59.59,0,0,1,.411-.613.572.572,0,0,1,.715.567C-247.089,716.533-247.091,717.373-247.091,718.214Z" transform="translate(254.022 -709.681)" fill="#606060"/>
</svg>
