<svg xmlns="http://www.w3.org/2000/svg" width="59.655" height="55.96" viewBox="0 0 59.655 55.96">
  <path id="Path_54013" data-name="Path 54013" d="M-1270.7,3270.211c.078-.475.132-.955.237-1.424a13.055,13.055,0,0,1,7.365-9.42c.052-.025.1-.053.2-.1l-.383-.362a11.087,11.087,0,0,1-3.468-6.021,10.951,10.951,0,0,1,7.815-12.934,11.257,11.257,0,0,1,11.8,3.432,9.633,9.633,0,0,1,1.326,1.937,2.181,2.181,0,0,1-.06,2.2,1.6,1.6,0,0,1-1.745.706,1.91,1.91,0,0,1-1.559-1.02,7.515,7.515,0,0,0-3.651-3.376,7.492,7.492,0,0,0-10.314,5.717,7.594,7.594,0,0,0,5.769,8.572c.14.033.288.035.428.067a1.632,1.632,0,0,1,1.233,1.9,2.085,2.085,0,0,1-1.6,1.773,10.283,10.283,0,0,1-1.131.078,9.145,9.145,0,0,0-8.287,7.193,11.4,11.4,0,0,0-.233,2.163c-.028,2.4-.013,4.8-.006,7.194a3.033,3.033,0,0,0,.092.775,1.717,1.717,0,0,0,1.775,1.265c.631.011,1.262,0,1.893,0a1.746,1.746,0,0,1,1.83,1.858,1.739,1.739,0,0,1-1.819,1.866,24.756,24.756,0,0,1-2.674-.066,5.755,5.755,0,0,1-4.709-4.383c-.035-.168-.079-.333-.119-.5Zm37.313-.109a11.925,11.925,0,0,0,2.12-2.577,10.882,10.882,0,0,0,1.409-7.66,10.447,10.447,0,0,0-2.768-5.659,11.012,11.012,0,0,0-11.05-3.167,10.925,10.925,0,0,0-8.3,12.214,10.854,10.854,0,0,0,3.24,6.482c.236.239.459.49.693.742a1.088,1.088,0,0,1-.1.054,12.021,12.021,0,0,0-4.193,3.071,13.023,13.023,0,0,0-3.447,8.839c-.006,2.32,0,4.641,0,6.961,0,.311-.017.623.014.931a5.749,5.749,0,0,0,5.634,5.1q9.262,0,18.524,0a6.761,6.761,0,0,0,.84-.057,5.751,5.751,0,0,0,4.815-5.443c0-2.524.012-5.048-.008-7.573a12.5,12.5,0,0,0-.172-2.024,13.21,13.21,0,0,0-4.921-8.28,11.62,11.62,0,0,0-2.706-1.6Zm-16.6,21.6a3.2,3.2,0,0,1-.778-.084,1.74,1.74,0,0,1-1.29-1.846q-.006-3.684,0-7.369a9.062,9.062,0,0,1,.691-3.572,8.971,8.971,0,0,1,6.924-5.591,11.683,11.683,0,0,1,2.082-.169c1.388-.012,2.78-.044,4.162.057a8.865,8.865,0,0,1,6.736,3.75,9.256,9.256,0,0,1,1.772,5.641q.005,3.568,0,7.136a1.817,1.817,0,0,1-2.04,2.049h-9.146Q-1245.431,3291.708-1249.99,3291.7Zm1.66-29.845a7.5,7.5,0,0,1,7.5-7.436,7.5,7.5,0,0,1,7.414,7.491,7.506,7.506,0,0,1-7.484,7.422A7.506,7.506,0,0,1-1248.329,3261.86Zm29.781-2.875a10.922,10.922,0,0,0,3.594-10.318,10.461,10.461,0,0,0-5.337-7.684,11.194,11.194,0,0,0-9.486-.822,10.648,10.648,0,0,0-6.181,5.174,1.661,1.661,0,0,0-.192.572,2.613,2.613,0,0,0,.817,2.124.671.671,0,0,0,.334.156,2.48,2.48,0,0,0,1.937-.5,3.689,3.689,0,0,0,.911-1.153,7.212,7.212,0,0,1,7.365-3.181,7.391,7.391,0,0,1,6.265,7.15,7.4,7.4,0,0,1-3.663,6.718,6.056,6.056,0,0,1-2.394.927,1.581,1.581,0,0,0-1.329.946,2.038,2.038,0,0,0,1.792,2.791,9.441,9.441,0,0,1,3.22.553,9.209,9.209,0,0,1,6.118,8.792c.015,2.447.006,4.893,0,7.339a1.792,1.792,0,0,1-1.959,1.954c-.631,0-1.262-.005-1.893,0a1.738,1.738,0,0,0-1.739,1.683,1.741,1.741,0,0,0,1.585,2.024,17.561,17.561,0,0,0,2.876-.051,5.677,5.677,0,0,0,4.857-5.537c0-2.5,0-4.99,0-7.485a12.192,12.192,0,0,0-.919-4.674,13.106,13.106,0,0,0-6.878-7.227Z" transform="translate(1270.7 -3239.476)" fill="#606060"/>
</svg>
