<svg xmlns="http://www.w3.org/2000/svg" width="61.388" height="61.406" viewBox="0 0 61.388 61.406">
  <g id="Group_106104" data-name="Group 106104" transform="translate(6168.23 2549.379)">
    <path id="Path_53952" data-name="Path 53952" d="M-6132.842-2472.533c-.432,0-.876-.019-1.32-.057a13.627,13.627,0,0,1-12.16-10.684,13.078,13.078,0,0,1,2.978-11.949,35.672,35.672,0,0,1,3.036-3c.129-.118.261-.238.391-.358l2.75,2.782c-.688.76-1.4,1.542-2.151,2.276a9.632,9.632,0,0,0-3.18,7.214,9.2,9.2,0,0,0,5.211,8.5,9.622,9.622,0,0,0,4.412,1.123h0a9.711,9.711,0,0,0,5.593-1.88,12.254,12.254,0,0,0,1.623-1.425l.059-.056c1-.986,2-2,2.965-2.974,1.981-2,4.029-4.066,6.117-6a10.121,10.121,0,0,0,3.339-7.192,9.511,9.511,0,0,0-1.742-5.747l2.876-3.069a12.7,12.7,0,0,1,2.788,6.115,13.481,13.481,0,0,1-4.023,12.454q-2.754,2.76-5.514,5.513l-4.162,4.159A13.607,13.607,0,0,1-6132.842-2472.533Zm5.462-21.5a12.86,12.86,0,0,1-2.507-5.042c-1.272-5.157-.017-9.579,3.837-13.514,2.76-2.818,5.783-5.854,9.517-9.554a13.241,13.241,0,0,1,9.391-3.838,13.71,13.71,0,0,1,13.361,10.017,13.358,13.358,0,0,1-3.64,13.614c-.662.682-1.346,1.365-2.01,2.026l-2.956-2.994.036-.035c.828-.816,1.686-1.661,2.528-2.527a9.589,9.589,0,0,0,1.711-11.525,9.556,9.556,0,0,0-8.354-4.91,9.692,9.692,0,0,0-6.775,2.771c-3.592,3.486-7.012,6.933-10.163,10.246a10.647,10.647,0,0,0-2.335,3.923,9.046,9.046,0,0,0,1.36,8.358Z" transform="translate(-17.795 -19.342)" fill="#606060"/>
    <path id="Path_53953" data-name="Path 53953" d="M-6129.047-2487.973v-7.392h2.311v7.392Zm7.255-12.813,1.52-1.506,4.833,4.845-1.522,1.519Zm7.569-7.1v-2.308h7.382v2.308Zm-54.006-19.248v-2.3h7.4v2.3Zm8.12-12.055,1.478-1.464,4.741,4.719-1.521,1.486Zm11.8-2.787v-7.4h2.294v7.4Z" transform="translate(-0.001)" fill="#606060"/>
  </g>
</svg>
