<svg xmlns="http://www.w3.org/2000/svg" width="22.683" height="15.985" viewBox="0 0 22.683 15.985">
  <g id="Group_106115" data-name="Group 106115" transform="translate(-939.748 -1461.628)">
    <path id="Path_54030" data-name="Path 54030" d="M1156.109,1510.884l-.49-.489c-.037-.037-.069-.073-.1-.112l-.049-.055-.2-.221.212-.212.315-.314.3-.3.415-.417.048-.048.136-.135.133-.132c.114-.114.246-.249.363-.392a.4.4,0,0,0,.077-.32.471.471,0,0,0-.209-.321.477.477,0,0,0-.646.1l-.6.6-.649.65-.216.216c-.038.037-.074.07-.113.1l-.052.046-.221.2-.765-.765q-.522-.522-1.044-1.045a.544.544,0,0,0-.345-.191.475.475,0,0,0-.359.833c.342.347.693.7,1.033,1.036l.433.432.391.391-.563.563-.375.375-.375.374q-.265.265-.528.53a.494.494,0,0,0-.125.6.461.461,0,0,0,.338.246.532.532,0,0,0,.446-.163c.175-.171.362-.357.59-.584l.434-.435.435-.436.4-.4.533.533.391.392c.3.3.613.614.921.919a.486.486,0,0,0,.6.12.534.534,0,0,0,.118-.088.482.482,0,0,0-.039-.7C1156.771,1511.543,1156.435,1511.208,1156.109,1510.884Z" transform="translate(-194.842 -41.975)" fill="#606060"/>
    <path id="Path_54031" data-name="Path 54031" d="M955,1465.629a.492.492,0,0,1-.367-.541c.01-.418.008-.844.005-1.257q0-.184,0-.368a1.357,1.357,0,0,0-.015-.242,1.891,1.891,0,0,0-1.843-1.593,2.037,2.037,0,0,0-1.021.285l-2.158,1.257c-1.216.709-2.474,1.443-3.714,2.161a1.015,1.015,0,0,1-.489.131c-.591,0-1.189,0-1.7,0h-2.043a1.874,1.874,0,0,0-1.91,1.912q0,.26,0,.519,0,.382,0,.764a1.87,1.87,0,0,0,1.182,1.833.478.478,0,0,1,.255.344c.04.325.073.655.1.974q.018.185.037.37.058.571.119,1.143c.088.836.178,1.7.256,2.552a1.844,1.844,0,0,0,1.574,1.687,7.6,7.6,0,0,0,.9.048c.168,0,.347,0,.545-.012a1.873,1.873,0,0,0,1.417-.739,1.849,1.849,0,0,0,.328-1.543c-.11-.469-.257-.941-.4-1.4-.06-.191-.121-.389-.18-.585q-.252-.847-.507-1.693l-.25-.833.2-.262.143.048c.032.011.067.021.1.031a1.2,1.2,0,0,1,.286.108c.745.429,1.5.87,2.231,1.3l.566.33.992.58c.706.414,1.435.842,2.157,1.253a1.933,1.933,0,0,0,.968.264h0a1.871,1.871,0,0,0,1.868-1.913q0-.212,0-.424c0-.387,0-.788,0-1.18a.442.442,0,0,1,.335-.474,2.572,2.572,0,0,0,.032-4.836Zm-9.52,9.829a.882.882,0,0,1-.125.781.931.931,0,0,1-.754.358h-.475l-.527,0a.883.883,0,0,1-.924-.845q-.12-1.2-.244-2.4-.09-.883-.18-1.766c-.016-.156-.028-.313-.042-.479-.006-.081-.013-.164-.021-.252l-.019-.226h.862c.225,0,.491,0,.764.007a.4.4,0,0,1,.332.278C944.634,1472.6,945.055,1474,945.48,1475.458Zm-.183-5.818h-2.166c-.61,0-1.1,0-1.557,0a.872.872,0,0,1-.848-.872c-.013-.473-.013-.952,0-1.422a.9.9,0,0,1,.972-.886l1.373,0h1.863a1.2,1.2,0,0,1,.123.008l.048,0,.192.015Zm7.9,3.717a.863.863,0,0,1-.424.114,1.128,1.128,0,0,1-.581-.184c-2-1.183-3.843-2.266-5.629-3.311a.511.511,0,0,1-.277-.489c.006-.908.006-1.867,0-2.932a.5.5,0,0,1,.26-.475c1.228-.718,2.475-1.451,3.681-2.16l2.007-1.18a1.1,1.1,0,0,1,.552-.161.908.908,0,0,1,.877.99q0,1.589,0,3.177s0,2.032,0,2.41c0,1.075,0,2.187,0,3.281A.979.979,0,0,1,953.2,1473.357Zm1.777-3.976-.325.218v-3.152l.322.209a1.6,1.6,0,0,1,0,2.724Z" transform="translate(0 0)" fill="#606060"/>
  </g>
</svg>
