<svg xmlns="http://www.w3.org/2000/svg" xmlns:xlink="http://www.w3.org/1999/xlink" width="35.858" height="35.211" viewBox="0 0 35.858 35.211">
  <defs>
    <filter id="Path_54015" x="0" y="0" width="35.858" height="35.211" filterUnits="userSpaceOnUse">
      <feOffset dy="3" input="SourceAlpha"/>
      <feGaussianBlur stdDeviation="3" result="blur"/>
      <feFlood flood-opacity="0.161"/>
      <feComposite operator="in" in2="blur"/>
      <feComposite in="SourceGraphic"/>
    </filter>
  </defs>
  <g transform="matrix(1, 0, 0, 1, 0, 0)" filter="url(#Path_54015)">
    <path id="Path_54015-2" data-name="Path 54015" d="M-480.415-65.879c-1.354,1.617-2.712,3.229-4.06,4.85a1.277,1.277,0,0,0,.12,1.849,1.321,1.321,0,0,0,1.884-.172c.276-.315.54-.641.809-.962q2.634-3.135,5.269-6.269a1.3,1.3,0,0,0-.02-1.765q-3.013-3.585-6.028-7.168a1.32,1.32,0,0,0-1.9-.264,1.3,1.3,0,0,0-.093,1.94q1.968,2.345,3.936,4.689c.1.116.186.238.316.406h-.532c-3.92,0-7.84-.006-11.759.012a1.857,1.857,0,0,0-.94.278,1.2,1.2,0,0,0-.435,1.405,1.262,1.262,0,0,0,1.26.894q5.94,0,11.881,0h.5C-480.306-66.021-480.358-65.947-480.415-65.879Z" transform="translate(502.91 82.07)" fill="#fff"/>
  </g>
</svg>
