<svg xmlns="http://www.w3.org/2000/svg" width="19.655" height="19.134" viewBox="0 0 19.655 19.134">
  <path id="Path_54027" data-name="Path 54027" d="M3995.776,1384.79c0-.533-.007-1.066,0-1.6a1.143,1.143,0,0,1,1.3-1.165,1.111,1.111,0,0,1,.988,1.087q.014,2.215,0,4.43a1.1,1.1,0,0,1-1.083,1.1q-2.227.02-4.453,0a1.12,1.12,0,0,1-1.082-1.149,1.133,1.133,0,0,1,1.093-1.14c.467-.014.935,0,1.441,0-.212-.261-.4-.482-.579-.714a9.568,9.568,0,0,1,5.24-15.072,12.639,12.639,0,0,1,2.317-.3,1.127,1.127,0,0,1,1.213,1.139,1.162,1.162,0,0,1-1.19,1.15,7.234,7.234,0,0,0-7.1,5.894,7.093,7.093,0,0,0,1.69,6.214c.046.054.086.112.129.169Zm11.046-9.351c.064.086.131.17.193.258a7.29,7.29,0,0,1-1.53,9.886,7.48,7.48,0,0,1-4.057,1.529,1.142,1.142,0,0,0,.211,2.273,13.558,13.558,0,0,0,2.25-.422,9.568,9.568,0,0,0,4.922-14.7c-.034-.048-.059-.1-.1-.176.453,0,.875.011,1.3,0a1.133,1.133,0,0,0,1.094-1.139,1.118,1.118,0,0,0-1.08-1.15q-2.227-.022-4.453,0a1.1,1.1,0,0,0-1.083,1.071q-.019,2.239,0,4.478a1.112,1.112,0,0,0,1.033,1.07,1.129,1.129,0,0,0,1.22-.885,2.343,2.343,0,0,0,.037-.452c0-.539,0-1.078,0-1.617Z" transform="translate(-3991.444 -1370.259)" fill="#606060"/>
</svg>
