<svg xmlns="http://www.w3.org/2000/svg" width="22.683" height="22.636" viewBox="0 0 22.683 22.636">
  <path id="Path_54028" data-name="Path 54028" d="M4125.6,1714.569a2.519,2.519,0,0,1,.316-.643,1.911,1.911,0,0,1,.705-.52q8.461-3.115,16.932-6.2,1.3-.476,2.6-.958a1.514,1.514,0,0,1,2,1.983q-3.515,9.6-7.021,19.212a1.81,1.81,0,0,1-1.306,1.312h-.518a1.961,1.961,0,0,1-1.276-1.15c-.908-1.764-1.851-3.511-2.768-5.271a1.11,1.11,0,0,1-.12-.58.687.687,0,0,1,.606-.6.74.74,0,0,1,.8.416c.465.872.925,1.746,1.387,2.62l1.472,2.788c.036.068.077.133.144.249l7.208-19.542-19.614,7.113,7.455,4a1.027,1.027,0,0,1,.137-.224q2.995-3,5.994-6a.8.8,0,0,1,.778-.282.745.745,0,0,1,.451,1.166,1.852,1.852,0,0,1-.2.227l-6.417,6.41a.81.81,0,0,1-1.174.174q-3.844-2.042-7.69-4.08a1.8,1.8,0,0,1-.878-1.1Z" transform="translate(-4125.604 -1706.117)" fill="#606060"/>
</svg>
