<svg xmlns="http://www.w3.org/2000/svg" width="19.656" height="19.65" viewBox="0 0 19.656 19.65">
  <path id="Path_54026" data-name="Path 54026" d="M1192.462,82.786a3.894,3.894,0,0,1,2.655-4.607,3.794,3.794,0,0,1,4.405,2.054,3.75,3.75,0,0,1-6.344,3.9l-2.133,1.077q-1.588.8-3.176,1.6c-.115.058-.186.1-.154.261a3.435,3.435,0,0,1-.032,1.769l5.474,2.76c.219-.21.416-.426.641-.608a3.635,3.635,0,0,1,5.395.787,3.734,3.734,0,1,1-6.141,4.247,3.5,3.5,0,0,1-.62-2.9.251.251,0,0,0-.088-.218c-1.784-.908-3.571-1.808-5.377-2.718a3.758,3.758,0,0,1-3.272,1.44,3.709,3.709,0,0,1-2.524-1.377,3.593,3.593,0,0,1,.331-5.122,3.653,3.653,0,0,1,5.488.423Zm5.926-.962a2.266,2.266,0,1,0-2.307,2.254A2.159,2.159,0,0,0,1198.388,81.824Zm-2.266,9.815a2.266,2.266,0,1,0,2.268,2.246A2.157,2.157,0,0,0,1196.122,91.64Zm-12.088-1.513a2.267,2.267,0,1,0-2.266-2.272A2.162,2.162,0,0,0,1184.034,90.126Z" transform="translate(-1180.251 -78.036)" fill="#606060"/>
</svg>
