<svg xmlns="http://www.w3.org/2000/svg" width="19.656" height="19.652" viewBox="0 0 19.656 19.652">
  <path id="Path_53941" data-name="Path 53941" d="M4856.917,479.977h.552a1.325,1.325,0,0,0,.135.018,9.508,9.508,0,0,1,2.1.312,9.823,9.823,0,0,1,7.278,8.7c.014.175.028.35.042.525v.552c-.006.041-.014.082-.018.123-.055.479-.077.965-.168,1.437a9.821,9.821,0,0,1-16.47,5.224,9.816,9.816,0,0,1,6.012-16.847Zm5.073,3.62a7.844,7.844,0,0,0-11.005,11Zm1.41,1.414-11,11a7.841,7.841,0,0,0,11-11Z" transform="translate(-4847.368 -479.977)" fill="#d92626"/>
</svg>
