<svg xmlns="http://www.w3.org/2000/svg" width="22.511" height="22.516" viewBox="0 0 22.511 22.516">
  <path id="Path_53943" data-name="Path 53943" d="M6473.639,2505.984a8.274,8.274,0,0,1,4.641-7.436,5.2,5.2,0,0,1-1.565-4.676,5.059,5.059,0,0,1,1.968-3.3,5.256,5.256,0,0,1,6.828,7.976,8.276,8.276,0,0,1,4.636,7.436Zm1.655-1.513h13.155a.261.261,0,0,0,.007-.058.733.733,0,0,0-.019-.092,6.714,6.714,0,0,0-4.318-4.7.51.51,0,0,0-.329.012,5.3,5.3,0,0,1-3.779.008.588.588,0,0,0-.373-.009,6.726,6.726,0,0,0-4.015,3.855C6475.491,2503.8,6475.406,2504.129,6475.294,2504.47Zm6.586-5.991a3.752,3.752,0,1,0-3.738-3.771A3.754,3.754,0,0,0,6481.88,2498.48Zm14.271.891c-.015-.068-.035-.135-.043-.2a8.071,8.071,0,0,0-3.054-5.6c-.476-.385-1.015-.693-1.521-1.032a5.261,5.261,0,0,0-4.917-8.9,5.186,5.186,0,0,0-3.9,4.372l1.447.346a3.754,3.754,0,1,1,4.112,4.113c.115.482.23.964.355,1.489.384-.107.763-.221,1.146-.316a.68.68,0,0,1,.375-.008,6.715,6.715,0,0,1,4.016,3.855c.131.313.217.646.335,1h-6.387c.09.085.146.135.2.188.373.378.753.749,1.112,1.139a.454.454,0,0,0,.374.173q3.177-.008,6.354,0Z" transform="translate(-6473.639 -2483.468)" fill="#38a271"/>
</svg>
