<svg xmlns="http://www.w3.org/2000/svg" width="23.577" height="24" viewBox="0 0 23.577 24">
  <path id="Path_53341" data-name="Path 53341" d="M2807.1,2005.865a.4.4,0,0,1-.224-.427c0-2.348.01-4.7,0-7.044a9.337,9.337,0,0,0-.145-1.586,8.791,8.791,0,0,0-17.434,1.61q0,3.5,0,6.995a.489.489,0,0,1-.312.521,2.381,2.381,0,0,0-1.287,2.6,2.406,2.406,0,0,0,2.176,1.925c1.139.042,2.28.019,3.42.023.324,0,.648,0,.966,0a4.026,4.026,0,0,0,7.851.011c.069,0,.143-.01.217-.01,1.224,0,2.447,0,3.671,0a2.473,2.473,0,0,0,2.466-1.9A2.4,2.4,0,0,0,2807.1,2005.865Zm-8.847,6.145A2.351,2.351,0,0,1,2796,2010.5h4.378A2.322,2.322,0,0,1,2798.254,2012.01Zm8.614-3.767a.862.862,0,0,1-.91.624h-7.865q-3.97,0-7.94,0a.833.833,0,0,1-.776-.452.647.647,0,0,1,.063-.748,1.09,1.09,0,0,1,.362-.292,1.859,1.859,0,0,0,1.09-1.761c0-2.364-.009-4.729,0-7.093a7.2,7.2,0,0,1,7.575-7.211,7.163,7.163,0,0,1,6.7,5.939,7.843,7.843,0,0,1,.109,1.341c.01,2.348,0,4.7.006,7.043a1.784,1.784,0,0,0,1.046,1.681A.823.823,0,0,1,2806.869,2008.243Zm-19.853-7.426a.8.8,0,0,1-.718-.849c.071-.8.143-1.584.211-2.371a13.063,13.063,0,0,1,.641-3.289c.117-.328.243-.653.383-.971a.8.8,0,1,1,1.476.626,12.064,12.064,0,0,0-.919,4.183c-.045.646-.111,1.291-.186,1.935A.776.776,0,0,1,2787.016,2000.817Zm22.858-.937a.828.828,0,0,1-.712.938.786.786,0,0,1-.886-.768c-.1-1.043-.186-2.087-.3-3.129a10.02,10.02,0,0,0-.795-2.92.808.808,0,0,1,.383-1.115.793.793,0,0,1,1.064.417,9.758,9.758,0,0,1,.84,2.754c.153,1.136.243,2.281.361,3.422C2809.844,1999.636,2809.863,1999.793,2809.874,1999.88Z" transform="translate(-2786.297 -1989.618)" fill="#606060"/>
</svg>
