<svg xmlns="http://www.w3.org/2000/svg" width="23.577" height="24.377" viewBox="0 0 23.577 24.377">
  <path id="Path_53938" data-name="Path 53938" d="M17.743-2195.262v-7.784L4.93-2199.979c0,.64,0,1.268,0,1.9,0,2.72-.021,5.44.011,8.16a3.638,3.638,0,0,1-1.663,3.192,5.529,5.529,0,0,1-6.42-.258,3.26,3.26,0,0,1,.183-5.34,5.519,5.519,0,0,1,6.342-.037c.041.03.084.057.155.106.007-.087.015-.144.015-.2,0-3.96.033-7.921-.014-11.881a3.635,3.635,0,0,1,2.935-3.769c2.817-.627,5.613-1.346,8.424-2a3.426,3.426,0,0,1,4.226,3.354q.016,7.137,0,14.273a3.357,3.357,0,0,1-1.705,2.836,5.483,5.483,0,0,1-6.206-.2,3.331,3.331,0,0,1-1.437-2.95,3.238,3.238,0,0,1,1.153-2.257,5.1,5.1,0,0,1,3.584-1.281,5.277,5.277,0,0,1,3.083.978C17.629-2195.332,17.666-2195.311,17.743-2195.262Zm-12.8-6.138a.306.306,0,0,0,.063,0q6.281-1.505,12.563-3.009c.146-.035.174-.108.173-.242-.005-.664,0-1.329,0-1.993a2.083,2.083,0,0,0-2.68-2.1L6.54-2206.7a2.039,2.039,0,0,0-1.606,2.012c-.007,1.045,0,2.09,0,3.135C4.932-2201.5,4.94-2201.452,4.944-2201.4Zm-4.674,9.421a4.13,4.13,0,0,0-2.309.662,1.962,1.962,0,0,0,0,3.454,3.82,3.82,0,0,0,1.961.65,3.941,3.941,0,0,0,2.832-.821,1.883,1.883,0,0,0,.134-2.975A3.794,3.794,0,0,0,.271-2191.979Zm14.134,1.82a4.047,4.047,0,0,0,2.494-.8,1.921,1.921,0,0,0-.011-3.2,3.76,3.76,0,0,0-2.085-.762,3.96,3.96,0,0,0-2.779.748,1.924,1.924,0,0,0-.007,3.236A4.04,4.04,0,0,0,14.405-2190.158Z" transform="translate(4.443 2210.205)" fill="#606060"/>
</svg>
