<svg xmlns="http://www.w3.org/2000/svg" xmlns:xlink="http://www.w3.org/1999/xlink" width="54.472" height="48.754" viewBox="0 0 54.472 48.754">
  <defs>
    <filter id="Path_53948" x="0" y="0" width="54.472" height="48.754" filterUnits="userSpaceOnUse">
      <feOffset dy="3" input="SourceAlpha"/>
      <feGaussianBlur stdDeviation="3" result="blur"/>
      <feFlood flood-opacity="0.302"/>
      <feComposite operator="in" in2="blur"/>
      <feComposite in="SourceGraphic"/>
    </filter>
  </defs>
  <g transform="matrix(1, 0, 0, 1, 0, 0)" filter="url(#Path_53948)">
    <path id="Path_53948-2" data-name="Path 53948" d="M5182.181,7401.823h-30.488a.823.823,0,0,0-.157-.069,3.307,3.307,0,0,1-2.772-2.9,17.348,17.348,0,0,1-.052-2.238q-.005-7.617,0-15.235a3.362,3.362,0,0,1,2.832-3.414c1.541-.273,3.085-.525,4.63-.774a.51.51,0,0,0,.458-.36c.454-1.171.925-2.335,1.4-3.5a3.4,3.4,0,0,1,3.364-2.266q5.537,0,11.075,0a3.4,3.4,0,0,1,3.387,2.284c.469,1.165.941,2.328,1.4,3.5a.486.486,0,0,0,.436.339c1.568.255,3.139.494,4.7.79a3.263,3.263,0,0,1,2.653,2.436c.047.157.091.313.137.47v17.945a1.278,1.278,0,0,0-.073.191,3.379,3.379,0,0,1-2.384,2.647C5182.54,7401.728,5182.359,7401.772,5182.181,7401.823Zm-15.244-2.27q7.355,0,14.71,0a1.145,1.145,0,0,0,1.254-1.229q0-8.457,0-16.913a1.149,1.149,0,0,0-1.063-1.245c-1.929-.326-3.856-.658-5.789-.966a.5.5,0,0,1-.437-.375c-.6-1.521-1.213-3.037-1.821-4.555a1.217,1.217,0,0,0-1.369-.939h-10.97a1.215,1.215,0,0,0-1.369.939c-.613,1.528-1.23,3.056-1.833,4.588a.477.477,0,0,1-.425.344q-2.843.461-5.683.949c-.875.149-1.17.515-1.17,1.4q0,8.314,0,16.627c0,.946.423,1.373,1.362,1.373Zm9.109-11.383a9.109,9.109,0,1,1-9.091-9.125A9.119,9.119,0,0,1,5176.045,7388.169Zm-9.1-6.862a6.844,6.844,0,1,0,6.838,6.834A6.846,6.846,0,0,0,5166.944,7381.307Zm-4.025,7.4c.346.02.572-.245.592-.691,0-.012,0-.023,0-.036a3.435,3.435,0,0,1,3.259-3.255c.477-.02.745-.241.722-.6s-.3-.54-.75-.525a4.574,4.574,0,0,0-4.353,4.357C5162.376,7388.413,5162.573,7388.69,5162.919,7388.709Z" transform="translate(-5139.7 -7365.07)" fill="#fff"/>
  </g>
</svg>
