<svg xmlns="http://www.w3.org/2000/svg" width="24.881" height="24.881" viewBox="0 0 24.881 24.881">
  <path id="Path_53339" data-name="Path 53339" d="M3708.593-2959.823a12.448,12.448,0,0,1-12.426-12.469,12.447,12.447,0,0,1,12.482-12.412,12.445,12.445,0,0,1,12.4,12.5A12.448,12.448,0,0,1,3708.593-2959.823Zm-10.648-12.468a10.668,10.668,0,0,0,10.635,10.691,10.669,10.669,0,0,0,10.69-10.608,10.666,10.666,0,0,0-10.607-10.717A10.665,10.665,0,0,0,3697.945-2972.291Zm11.953,6.1a6.159,6.159,0,0,0,3.917-2.964.863.863,0,0,0-.266-1.177.872.872,0,0,0-1.193.185c-.19.239-.351.5-.543.737a3.961,3.961,0,0,1-5.65.733,9.539,9.539,0,0,1-1.262-1.427.9.9,0,0,0-1.231-.231.881.881,0,0,0-.243,1.225c.072.118.153.231.233.344a6.02,6.02,0,0,0,5.164,2.727C3709.04-2966.066,3709.476-2966.1,3709.9-2966.188Zm-5.266-10.518a1.339,1.339,0,0,0-1.356,1.323,1.337,1.337,0,0,0,1.337,1.342,1.335,1.335,0,0,0,1.328-1.323A1.337,1.337,0,0,0,3704.632-2976.706Zm9.306,1.341a1.335,1.335,0,0,0-1.338-1.34,1.337,1.337,0,0,0-1.326,1.324,1.336,1.336,0,0,0,1.338,1.34A1.335,1.335,0,0,0,3713.938-2975.365Z" transform="translate(-3696.167 2984.703)" fill="#fff"/>
</svg>
