<svg xmlns="http://www.w3.org/2000/svg" width="28.039" height="26.867" viewBox="0 0 28.039 26.867">
  <path id="Path_54140" data-name="Path 54140" d="M4059.569,1517.249c.532.064,1.067.112,1.6.193a13.728,13.728,0,0,1,9.448,5.853,13.974,13.974,0,0,1,2.491,9.71,14.256,14.256,0,0,1-2.513,7.087,9.028,9.028,0,0,1-5.425,3.822,6.9,6.9,0,0,1-6.8-2.04,5.874,5.874,0,0,1-1.489-3.281c-.189-1.159-.312-2.328-.469-3.493-.023-.173-.081-.341-.115-.514a1.912,1.912,0,0,0-2.489-1.4c-.733.263-1.45.568-2.181.836a4.68,4.68,0,0,1-4.7-.681,4.573,4.573,0,0,1-1.728-3.291,9.59,9.59,0,0,1,1.559-6.078,13.412,13.412,0,0,1,9.254-6.387c.7-.144,1.413-.188,2.12-.279.108-.014.215-.036.322-.055ZM4071.1,1531.6c-.017-.381-.029-.733-.049-1.084-.008-.142-.03-.284-.048-.425a12.046,12.046,0,0,0-14.123-10.532,11.446,11.446,0,0,0-8.686,6.118,7.29,7.29,0,0,0-.968,3.881,2.644,2.644,0,0,0,3.694,2.49c.527-.185,1.037-.421,1.558-.625a4.647,4.647,0,0,1,2.472-.407,3.954,3.954,0,0,1,3.49,3.557c.2,1.169.294,2.353.477,3.524a4.158,4.158,0,0,0,1.4,2.755,4.931,4.931,0,0,0,4.328,1.039,6.984,6.984,0,0,0,4.326-3.125A13.044,13.044,0,0,0,4071.1,1531.6Zm-12.336-10.095a1.754,1.754,0,1,0,1.74,1.74A1.74,1.74,0,0,0,4058.761,1521.5Zm4.877,17.528a1.749,1.749,0,1,0-1.7-1.769A1.726,1.726,0,0,0,4063.638,1539.029Zm1.828-14.413a1.751,1.751,0,1,0-1.76,1.75A1.734,1.734,0,0,0,4065.466,1524.616Zm2.793,4.233a1.752,1.752,0,1,0-3.5,0,1.752,1.752,0,0,0,3.5,0Zm-2.813,4.882a1.749,1.749,0,0,0,3.5.088,1.749,1.749,0,1,0-3.5-.088Z" transform="translate(-4045.142 -1517.249)" fill="#fff"/>
</svg>
