<svg xmlns="http://www.w3.org/2000/svg" width="9.286" height="9.285" viewBox="0 0 9.286 9.285">
  <path id="Path_53950" data-name="Path 53950" d="M880.933-1472.941a.686.686,0,0,1-.187-.027.623.623,0,0,1-.436-.654c0-.556,0-1.122,0-1.67q0-.356,0-.711v-.969h-2.3c-.413,0-.751,0-1.066-.005a.683.683,0,0,1-.553-.257.591.591,0,0,1-.083-.53.634.634,0,0,1,.659-.432q.48,0,.961,0h2.384v-.71q0-.393,0-.786c0-.616,0-1.253,0-1.878a.615.615,0,0,1,.41-.623.621.621,0,0,1,.2-.033.614.614,0,0,1,.474.226.7.7,0,0,1,.14.486q0,.948,0,1.9v1.389l.382.019.089.005c.066,0,.129.008.2.008h1.571q.548,0,1.1,0a.613.613,0,0,1,.68.494.6.6,0,0,1-.1.481.513.513,0,0,1-.36.221c-.237.024-.479.027-.686.027h-.573l-.756,0h-1.509l-.017.385c0,.034,0,.065,0,.094,0,.066-.007.129-.007.2q0,.445,0,.889c0,.59,0,1.2,0,1.8A.619.619,0,0,1,880.933-1472.941Z" transform="translate(-876.276 1482.226)" fill="#fff"/>
</svg>
