<svg xmlns="http://www.w3.org/2000/svg" xmlns:xlink="http://www.w3.org/1999/xlink" width="48.097" height="49.306" viewBox="0 0 48.097 49.306">
  <defs>
    <filter id="Path_53955" x="0" y="0" width="48.097" height="49.306" filterUnits="userSpaceOnUse">
      <feOffset dy="3" input="SourceAlpha"/>
      <feGaussianBlur stdDeviation="3" result="blur"/>
      <feFlood flood-opacity="0.302"/>
      <feComposite operator="in" in2="blur"/>
      <feComposite in="SourceGraphic"/>
    </filter>
  </defs>
  <g transform="matrix(1, 0, 0, 1, 0, 0)" filter="url(#Path_53955)">
    <path id="Path_53955-2" data-name="Path 53955" d="M3466.1,1429.42a45.959,45.959,0,0,0-2.826-4.013,4.053,4.053,0,0,0-5.783-.75c-.485.368-1,.7-1.512,1.064a32.229,32.229,0,0,1-4.919-7.026c.593-.415,1.171-.818,1.748-1.224a3.8,3.8,0,0,0,1.6-2.323,4.567,4.567,0,0,0-.788-3.628c-.722-1.088-1.479-2.154-2.246-3.21a6.056,6.056,0,0,0-.912-.988,3.976,3.976,0,0,0-5.162-.269c-.762.535-1.513,1.088-2.291,1.6a3.873,3.873,0,0,0-1.686,2.341,10.907,10.907,0,0,0-.323,2.085,14.321,14.321,0,0,0,.549,4.379,29.209,29.209,0,0,0,3.7,8.321,31.572,31.572,0,0,0,8.853,9.451,12.206,12.206,0,0,0,5.3,2.251,4.115,4.115,0,0,0,2.962-.559c.945-.646,1.894-1.29,2.813-1.973A3.71,3.71,0,0,0,3466.7,1431,4.553,4.553,0,0,0,3466.1,1429.42Zm-1.951,3.956c-.933.682-1.875,1.352-2.837,1.993a2.562,2.562,0,0,1-2.022.2,11.683,11.683,0,0,1-4.165-1.925,28.126,28.126,0,0,1-6.944-6.883,29.49,29.49,0,0,1-4.732-9.441,13.318,13.318,0,0,1-.588-3.985,10.467,10.467,0,0,1,.307-1.986,1.845,1.845,0,0,1,.831-1.1c.807-.545,1.6-1.113,2.4-1.67a2.038,2.038,0,0,1,2.8.119,4.535,4.535,0,0,1,.728.807c.7.972,1.384,1.957,2.066,2.943a3.388,3.388,0,0,1,.628,1.594,1.94,1.94,0,0,1-.889,1.9l-2.762,1.932c-.095.066-.187.136-.331.24.6,1.1,1.155,2.208,1.783,3.274a34.025,34.025,0,0,0,5.012,6.49c.231.237.374.269.651.065.852-.629,1.732-1.22,2.6-1.83a2.068,2.068,0,0,1,2.763.1,4.252,4.252,0,0,1,.718.773c.72,1,1.421,2.01,2.12,3.023a3.317,3.317,0,0,1,.626,1.661A1.833,1.833,0,0,1,3464.146,1433.376Zm6.782-19.574a.675.675,0,0,1-.475.291c-.312.031-.632.035-.9.035h-.755c-.332,0-.663,0-1,0h-1.99l-.022.507c0,.044,0,.085-.007.125,0,.087-.009.17-.009.258q0,.586,0,1.172c0,.778,0,1.582,0,2.371a.817.817,0,0,1-.787.882.9.9,0,0,1-.247-.036.822.822,0,0,1-.575-.862c0-.733,0-1.48,0-2.2q0-.469,0-.937v-1.277h-.952l-1.044,0-1.041,0c-.544,0-.991,0-1.405-.007a.9.9,0,0,1-.729-.339.78.78,0,0,1-.11-.7.836.836,0,0,1,.869-.57q.634,0,1.267,0h3.144v-.937q0-.518,0-1.036c0-.812,0-1.652,0-2.477a.8.8,0,0,1,1.427-.566.919.919,0,0,1,.185.641q0,1.25,0,2.5v1.831l.5.025.118.007c.087.005.17.01.26.01h2.072q.722,0,1.444,0a.808.808,0,0,1,.9.651A.8.8,0,0,1,3470.927,1413.8Z" transform="translate(-3431.98 -1400.23)" fill="#fff"/>
  </g>
</svg>
