<svg xmlns="http://www.w3.org/2000/svg" width="27.61" height="27.618" viewBox="0 0 27.61 27.618">
  <g id="Group_106104" data-name="Group 106104" transform="translate(6168.23 2549.379)">
    <path id="Path_53952" data-name="Path 53952" d="M-6140.467-2501.94c-.194,0-.394-.008-.594-.025a6.129,6.129,0,0,1-5.469-4.805,5.882,5.882,0,0,1,1.339-5.374,16.13,16.13,0,0,1,1.366-1.35l.176-.161,1.237,1.251c-.31.342-.629.694-.968,1.024a4.334,4.334,0,0,0-1.43,3.245,4.138,4.138,0,0,0,2.344,3.824,4.327,4.327,0,0,0,1.984.5h0a4.367,4.367,0,0,0,2.516-.846,5.524,5.524,0,0,0,.73-.641l.026-.025c.448-.443.9-.9,1.333-1.337.891-.9,1.812-1.829,2.751-2.7a4.552,4.552,0,0,0,1.5-3.235,4.28,4.28,0,0,0-.784-2.584l1.293-1.38a5.712,5.712,0,0,1,1.254,2.75,6.063,6.063,0,0,1-1.81,5.6q-1.239,1.241-2.48,2.479l-1.872,1.871A6.12,6.12,0,0,1-6140.467-2501.94Zm2.457-9.668a5.778,5.778,0,0,1-1.127-2.268,6.063,6.063,0,0,1,1.726-6.078c1.241-1.268,2.6-2.633,4.28-4.3a5.955,5.955,0,0,1,4.223-1.726,6.166,6.166,0,0,1,6.01,4.505,6.008,6.008,0,0,1-1.637,6.123c-.3.307-.6.614-.9.911l-1.33-1.347.016-.016c.373-.367.758-.747,1.137-1.137a4.313,4.313,0,0,0,.77-5.184,4.3,4.3,0,0,0-3.757-2.208,4.358,4.358,0,0,0-3.047,1.246c-1.616,1.568-3.154,3.118-4.571,4.608a4.786,4.786,0,0,0-1.05,1.765,4.068,4.068,0,0,0,.612,3.759Z" transform="translate(-19.851 -21.576)" fill="#fff"/>
    <path id="Path_53953" data-name="Path 53953" d="M-6150.607-2521.761v-3.325h1.039v3.325Zm3.263-5.763.684-.677,2.173,2.179-.685.683Zm3.4-3.2v-1.038h3.32v1.038Zm-24.29-8.657v-1.034h3.328v1.034Zm3.652-5.422.665-.658,2.132,2.122-.684.668Zm5.308-1.254v-3.327h1.032v3.327Z" transform="translate(0)" fill="#fff"/>
  </g>
</svg>
