<svg xmlns="http://www.w3.org/2000/svg" width="12.056" height="12.057" viewBox="0 0 12.056 12.057">
  <path id="Path_53962" data-name="Path 53962" d="M-830.23-1555.489a1.221,1.221,0,0,0-.25.152q-4.372,4.366-8.739,8.737a2.636,2.636,0,0,0-.2.213.78.78,0,0,0,.488,1.265.866.866,0,0,0,.781-.319q4.391-4.4,8.785-8.8a1,1,0,0,0,.137-.257l.116.089v.236q0,1.9,0,3.808c0,.45-.006.9.005,1.351a.752.752,0,0,0,.61.733c.534.116.956-.271.957-.884q0-3.526,0-7.052c0-.662-.3-.956-.963-.956h-4.667c-.8,0-1.6,0-2.407,0a.8.8,0,0,0-.843.576.781.781,0,0,0,.83.994c1.679,0,3.357,0,5.036,0h.257Z" transform="translate(-827.542 -1545.112) rotate(180)" fill="#d92626"/>
</svg>
