<svg xmlns="http://www.w3.org/2000/svg" width="22.745" height="34.085" viewBox="0 0 22.745 34.085">
  <path id="Path_54150" data-name="Path 54150" d="M3540.121,1573.794a11.423,11.423,0,0,0-3.055-6.116.786.786,0,0,1-.2-.487c-.014-1.542.008-3.083-.013-4.625a21.775,21.775,0,0,0-.141-3.15,7.959,7.959,0,0,0-15.791,1.619q-.012,3.061.005,6.122a.741.741,0,0,1-.224.555,11.168,11.168,0,0,0-3.039,9.656,11.335,11.335,0,0,0,8.475,9.239c.578.139,1.169.224,1.753.334h2a1.264,1.264,0,0,1,.22-.062,10.641,10.641,0,0,0,3.322-.874A11.372,11.372,0,0,0,3540.121,1573.794Zm-16.894-13.023a5.662,5.662,0,0,1,11.324.038q0,2.277,0,4.555v.349a11.442,11.442,0,0,0-11.327,0v-1.884C3523.227,1562.81,3523.223,1561.791,3523.227,1560.771Zm5.634,23.9a9.082,9.082,0,1,1,9.1-9.074A9.116,9.116,0,0,1,3528.861,1584.671Zm2.256-11.828a2.145,2.145,0,0,1-.824,2.241.632.632,0,0,0-.273.578c.011,1.385.007,2.771.006,4.156,0,.1-.01.194-.017.308h-2.237c-.006-.118-.016-.235-.016-.351,0-1.408,0-2.815-.011-4.223a.583.583,0,0,0-.2-.4,2.282,2.282,0,0,1,1.564-4.113A2.248,2.248,0,0,1,3531.117,1572.843Z" transform="translate(-3517.524 -1552.856)" fill="#38a271"/>
</svg>