<svg xmlns="http://www.w3.org/2000/svg" width="33.968" height="35.703" viewBox="0 0 33.968 35.703">
  <path id="Path_54146" data-name="Path 54146" d="M1671.8,728.583a51.391,51.391,0,0,0-3.166-4.5,4.54,4.54,0,0,0-6.478-.84c-.543.412-1.115.786-1.693,1.192a36.1,36.1,0,0,1-5.51-7.87c.664-.465,1.312-.916,1.958-1.371a4.256,4.256,0,0,0,1.795-2.6,5.113,5.113,0,0,0-.883-4.064c-.809-1.219-1.656-2.412-2.516-3.6a6.8,6.8,0,0,0-1.021-1.107,4.454,4.454,0,0,0-5.783-.3c-.854.6-1.695,1.219-2.567,1.791a4.338,4.338,0,0,0-1.888,2.623,12.231,12.231,0,0,0-.362,2.335,16.048,16.048,0,0,0,.615,4.905,32.738,32.738,0,0,0,4.149,9.321,35.376,35.376,0,0,0,9.917,10.588,13.681,13.681,0,0,0,5.933,2.521,4.608,4.608,0,0,0,3.317-.627c1.059-.724,2.122-1.445,3.151-2.21a4.156,4.156,0,0,0,1.706-4.427A5.091,5.091,0,0,0,1671.8,728.583Zm-2.186,4.431c-1.045.764-2.1,1.515-3.178,2.233a2.869,2.869,0,0,1-2.266.223,13.086,13.086,0,0,1-4.666-2.157,31.5,31.5,0,0,1-7.779-7.71,33.019,33.019,0,0,1-5.3-10.577,14.9,14.9,0,0,1-.659-4.464,11.721,11.721,0,0,1,.344-2.225,2.068,2.068,0,0,1,.931-1.234c.9-.611,1.79-1.247,2.685-1.871a2.283,2.283,0,0,1,3.142.134,5.093,5.093,0,0,1,.816.9c.785,1.089,1.55,2.192,2.314,3.3a3.794,3.794,0,0,1,.7,1.785,2.173,2.173,0,0,1-1,2.13l-3.094,2.164c-.106.074-.21.152-.371.269.669,1.234,1.294,2.474,2,3.668a38.125,38.125,0,0,0,5.615,7.271c.26.266.419.3.729.073.955-.7,1.94-1.367,2.911-2.049a2.316,2.316,0,0,1,3.095.109,4.775,4.775,0,0,1,.8.866c.806,1.119,1.592,2.252,2.374,3.386a3.723,3.723,0,0,1,.7,1.861A2.054,2.054,0,0,1,1669.616,733.014Zm7.748-12.282-2.028-.356a14.2,14.2,0,0,0-11.473-16.393l.346-2.011A16.139,16.139,0,0,1,1677.364,720.732Zm-15.4-10.96.354-2.006a10.965,10.965,0,0,1,8.959,12.768l-2.03-.36a9.017,9.017,0,0,0-7.283-10.4Z" transform="translate(-1643.668 -701.972)" fill="#38a271"/>
</svg>
