<svg xmlns="http://www.w3.org/2000/svg" width="22" height="21.933" viewBox="0 0 22 21.933">
  <path id="Path_54141" data-name="Path 54141" d="M2021.324-807.817c.141-.839.278-1.657.415-2.474.21-1.257.414-2.515.635-3.77a.788.788,0,0,1,.21-.386q5.554-5.675,11.118-11.342c1.017-1.037,2.028-2.082,3.054-3.11a2.694,2.694,0,0,1,3.85.015c.376.377.745.763,1.118,1.144.265.271.53.544.8.814a2.723,2.723,0,0,1,.007,3.857q-4.031,4.1-8.066,8.2-3.088,3.138-6.175,6.278a.573.573,0,0,1-.39.2c-1.112.09-2.223.194-3.335.295l-3.116.284C2021.417-807.815,2021.388-807.817,2021.324-807.817Zm2.214-2.066c.258-.021.488-.038.718-.058.915-.081,1.83-.167,2.746-.241a.579.579,0,0,0,.391-.2q5.357-5.454,10.719-10.9c.04-.041.078-.084.149-.161l-3.178-3.036c-.294.278-.648.594-.981.932q-4.926,5-9.843,10.012a.712.712,0,0,0-.185.349c-.124.68-.232,1.364-.342,2.047C2023.665-810.731,2023.606-810.323,2023.538-809.883Zm15.932-12.94c.591-.545,1.177-1.064,1.736-1.609a.826.826,0,0,0,0-1.169q-.959-1.007-1.943-1.99a.771.771,0,0,0-1.106-.022c-.577.556-1.134,1.134-1.714,1.718Zm3.819,13.2h-12.84v1.854h12.84Z" transform="translate(-2021.324 829.701)" fill="#a0beb0"/>
</svg>
