<svg xmlns="http://www.w3.org/2000/svg" width="33.429" height="33.416" viewBox="0 0 33.429 33.416">
  <path id="Path_54142" data-name="Path 54142" d="M2330.188,1254.071a10.68,10.68,0,0,0-10.5-8.777q-6.035,0-12.07.005a11.462,11.462,0,0,0-1.693.133,10.661,10.661,0,0,0-8.979,10.463,2.655,2.655,0,0,0,2.751,2.763h13.948q7.027,0,14.053,0a2.643,2.643,0,0,0,2.578-2.033A6.384,6.384,0,0,0,2330.188,1254.071Zm-2.75,2.359h-27.557c-.583,0-.73-.15-.708-.716a8.475,8.475,0,0,1,6.883-8.038,8.722,8.722,0,0,1,1.589-.15q5.984-.018,11.969,0a8.431,8.431,0,0,1,8.254,6.48,11.275,11.275,0,0,1,.242,1.716C2328.158,1256.27,2327.986,1256.431,2327.438,1256.431Zm-13.875-13.357a8.916,8.916,0,1,0-8.827-8.913A8.957,8.957,0,0,0,2313.563,1243.074Zm.129-15.6a6.683,6.683,0,1,1-6.73,6.67A6.712,6.712,0,0,1,2313.692,1227.472Zm-3.32,24.539a1.114,1.114,0,1,1-1.088-1.149A1.1,1.1,0,0,1,2310.372,1252.012Zm4.455-.023a1.114,1.114,0,1,1-1.111-1.127A1.1,1.1,0,0,1,2314.827,1251.989Zm4.317-.011a1.087,1.087,0,0,1-1.122,1.112,1.114,1.114,0,1,1,1.122-1.112Z" transform="translate(-2296.941 -1225.243)" fill="#38a271"/>
</svg>
