<svg xmlns="http://www.w3.org/2000/svg" width="32.832" height="32.831" viewBox="0 0 32.832 32.831">
  <path id="Path_54145" data-name="Path 54145" d="M1585.715,121.588a16.415,16.415,0,1,0,16.382,16.463A16.4,16.4,0,0,0,1585.715,121.588Zm-.074,29.824A13.412,13.412,0,1,1,1599.091,138,13.4,13.4,0,0,1,1585.641,151.412Zm1.923-10.022c0,1.225.007,2.45,0,3.675a1.925,1.925,0,0,1-1.534,1.872,1.862,1.862,0,0,1-2.048-1.095,2.331,2.331,0,0,1-.175-.88c-.014-2.426-.01-4.851-.006-7.277a1.883,1.883,0,1,1,3.764-.006C1587.571,138.916,1587.564,140.154,1587.564,141.391Zm.369-10.1a2.252,2.252,0,1,1-2.238-2.25A2.277,2.277,0,0,1,1587.933,131.291Z" transform="translate(-1569.265 -121.588)" fill="#38a271"/>
</svg>
