<svg xmlns="http://www.w3.org/2000/svg" width="22.131" height="18.661" viewBox="0 0 22.131 18.661">
  <path id="Path_54014" data-name="Path 54014" d="M2511.876,3680.046h-18.5a.488.488,0,0,0-.1-.041,2.006,2.006,0,0,1-1.682-1.759,10.53,10.53,0,0,1-.032-1.358q0-4.622,0-9.245a2.04,2.04,0,0,1,1.719-2.071c.935-.166,1.872-.319,2.809-.47a.31.31,0,0,0,.278-.219c.275-.711.561-1.417.847-2.123a2.061,2.061,0,0,1,2.041-1.375h6.72a2.061,2.061,0,0,1,2.055,1.386c.285.707.572,1.413.847,2.123a.3.3,0,0,0,.265.205c.951.155,1.9.3,2.851.479a1.981,1.981,0,0,1,1.61,1.479c.029.095.055.19.083.285v10.889a.839.839,0,0,0-.044.116,2.048,2.048,0,0,1-1.446,1.606C2512.094,3679.989,2511.985,3680.016,2511.876,3680.046Zm-9.25-1.377h8.926a.7.7,0,0,0,.761-.747q0-5.131,0-10.262a.7.7,0,0,0-.645-.756c-1.17-.2-2.34-.4-3.512-.586a.3.3,0,0,1-.266-.228c-.365-.923-.736-1.843-1.1-2.764a.738.738,0,0,0-.831-.57H2499.3a.737.737,0,0,0-.831.57c-.372.927-.747,1.854-1.112,2.784a.29.29,0,0,1-.258.208q-1.726.28-3.448.575c-.53.091-.71.313-.71.851v10.089c0,.574.257.833.827.833Zm5.527-6.907a5.527,5.527,0,1,1-5.516-5.537A5.534,5.534,0,0,1,2508.153,3671.762Zm-5.522-4.164a4.153,4.153,0,1,0,4.149,4.147A4.155,4.155,0,0,0,2502.631,3667.6Zm-2.442,4.491c.21.012.347-.148.359-.419,0-.007,0-.014,0-.022a2.084,2.084,0,0,1,1.977-1.975c.289-.012.452-.146.438-.362s-.182-.328-.456-.319a2.776,2.776,0,0,0-2.641,2.644C2499.859,3671.91,2499.979,3672.078,2500.188,3672.089Z" transform="translate(-2491.561 -3661.385)" fill="#fff"/>
</svg>
