<svg xmlns="http://www.w3.org/2000/svg" width="15.614" height="13.166" viewBox="0 0 15.614 13.166">
  <path id="Path_54014" data-name="Path 54014" d="M2505.894,3674.551h-13.052a.363.363,0,0,0-.068-.029,1.415,1.415,0,0,1-1.187-1.241,7.457,7.457,0,0,1-.022-.958q0-3.261,0-6.522a1.439,1.439,0,0,1,1.213-1.461c.66-.117,1.32-.225,1.982-.332a.218.218,0,0,0,.2-.154c.194-.5.4-1,.6-1.5a1.454,1.454,0,0,1,1.44-.97h4.741a1.454,1.454,0,0,1,1.449.978c.2.5.4,1,.6,1.5a.208.208,0,0,0,.187.145c.671.109,1.343.211,2.011.338a1.4,1.4,0,0,1,1.136,1.043c.02.067.039.135.059.2v7.682a.654.654,0,0,0-.031.082,1.445,1.445,0,0,1-1.021,1.133C2506.047,3674.51,2505.97,3674.529,2505.894,3674.551Zm-6.526-.972h6.3a.49.49,0,0,0,.537-.527q0-3.62,0-7.24a.492.492,0,0,0-.455-.533c-.826-.14-1.651-.282-2.478-.413a.214.214,0,0,1-.187-.161c-.257-.651-.519-1.3-.779-1.95a.521.521,0,0,0-.586-.4h-4.7a.52.52,0,0,0-.586.4c-.263.654-.527,1.308-.784,1.964a.205.205,0,0,1-.182.147q-1.218.2-2.433.406c-.374.064-.5.22-.5.6v7.118c0,.405.181.588.583.588Zm3.9-4.873a3.9,3.9,0,1,1-3.892-3.906A3.9,3.9,0,0,1,2503.267,3668.706Zm-3.9-2.938a2.93,2.93,0,1,0,2.927,2.926A2.931,2.931,0,0,0,2499.371,3665.768Zm-1.723,3.169c.148.008.245-.1.253-.3,0-.005,0-.01,0-.015a1.47,1.47,0,0,1,1.4-1.394c.2-.008.319-.1.309-.255s-.129-.231-.322-.225a1.959,1.959,0,0,0-1.864,1.865C2497.415,3668.81,2497.5,3668.929,2497.648,3668.937Z" transform="translate(-2491.561 -3661.385)" fill="#fff"/>
</svg>
