<svg xmlns="http://www.w3.org/2000/svg" width="19.952" height="16.628" viewBox="0 0 19.952 16.628">
  <path id="Path_54307" data-name="Path 54307" d="M-610.126,927.2v4.986h.135c.8,0,1.6,0,2.4,0a.9.9,0,0,1,.684.281c.422.429.852.85,1.273,1.279a.328.328,0,0,0,.26.106q2.35,0,4.7,0a.848.848,0,0,0,.864-.737c.185-1.085.379-2.168.561-3.253.148-.885.284-1.773.426-2.66.036-.226.074-.452.107-.678a.835.835,0,0,0-.842-.981c-.437,0-.875-.011-1.311,0a.824.824,0,0,1-.836-.852.8.8,0,0,1,.842-.812c.42,0,.84,0,1.259,0a2.472,2.472,0,0,1,2.078,1.055,2.492,2.492,0,0,1,.43,2.064c-.17.912-.306,1.831-.458,2.746s-.3,1.805-.454,2.707c-.068.4-.117.805-.219,1.2a2.515,2.515,0,0,1-2.426,1.866c-1.723,0-3.445,0-5.168,0a.9.9,0,0,1-.692-.288c-.425-.438-.86-.866-1.294-1.3a.25.25,0,0,0-.151-.078c-.705,0-1.411,0-2.116,0a.5.5,0,0,0-.064.01c0,.243.007.484,0,.725a1.349,1.349,0,0,1-.062.405.813.813,0,0,1-.766.52c-1.718,0-3.437-.007-5.155.006a.87.87,0,0,1-.866-.872c.008-.545,0-1.091,0-1.636q0-4.1,0-8.206a.848.848,0,0,1,.485-.843.8.8,0,0,1,.336-.079q2.6-.007,5.194,0a.815.815,0,0,1,.828.766c.018.258.008.519.011.778,0,.034,0,.068.007.117a3.059,3.059,0,0,0,.363-.005c.039,0,.083-.064.1-.107q.707-1.405,1.408-2.813c.527-1.054,1.048-2.11,1.584-3.159a.943.943,0,0,1,.9-.564c.3.006.6.009.9,0a2.553,2.553,0,0,1,2.461,2.012,2.24,2.24,0,0,1-.055,1.19c-.315.959-.637,1.915-.956,2.872a.742.742,0,0,1-.634.541.841.841,0,0,1-.861-.36.8.8,0,0,1-.074-.744q.351-1.035.7-2.072.119-.356.229-.715a.822.822,0,0,0-.764-1.062c-.134,0-.269.006-.4,0a.168.168,0,0,0-.186.113q-1.362,2.736-2.73,5.468c-.1.2-.195.395-.3.591a.829.829,0,0,1-.785.478C-609.522,927.205-609.82,927.2-610.126,927.2Zm-1.688,6.643v-8.3h-3.491v8.3Z" transform="translate(616.987 -918.891)" fill="#606060"/>
</svg>
