<svg xmlns="http://www.w3.org/2000/svg" width="23.577" height="23.581" viewBox="0 0 23.577 23.581">
  <path id="Path_54305" data-name="Path 54305" d="M2975.075,1485.608a8.665,8.665,0,0,1,4.861-7.787,5.449,5.449,0,0,1-1.639-4.9,5.3,5.3,0,0,1,2.061-3.455,5.505,5.505,0,0,1,7.151,8.353,8.668,8.668,0,0,1,4.855,7.787Zm1.733-1.585h13.778a.288.288,0,0,0,.007-.061.708.708,0,0,0-.02-.1,7.03,7.03,0,0,0-4.522-4.925.534.534,0,0,0-.345.012,5.555,5.555,0,0,1-3.958.008.613.613,0,0,0-.39-.01,7.044,7.044,0,0,0-4.205,4.037C2977.015,1483.318,2976.926,1483.666,2976.808,1484.024Zm6.9-6.274a3.929,3.929,0,1,0-3.915-3.95A3.932,3.932,0,0,0,2983.705,1477.75Zm14.946.933a2.164,2.164,0,0,1-.045-.213,8.455,8.455,0,0,0-3.2-5.869c-.5-.4-1.063-.725-1.593-1.081a5.51,5.51,0,0,0-5.149-9.323,5.431,5.431,0,0,0-4.088,4.578l1.516.362a3.931,3.931,0,1,1,4.307,4.308l.372,1.56c.4-.113.8-.231,1.2-.331a.711.711,0,0,1,.392-.008,7.033,7.033,0,0,1,4.206,4.038c.137.328.227.676.351,1.051h-6.689c.094.089.152.141.207.2.39.4.789.784,1.165,1.193a.475.475,0,0,0,.392.182q3.327-.009,6.654,0Z" transform="translate(-2975.075 -1462.027)" fill="#606060"/>
</svg>
