<svg xmlns="http://www.w3.org/2000/svg" width="21.615" height="22.059" viewBox="0 0 21.615 22.059">
  <path id="Path_54306" data-name="Path 54306" d="M1900.748,219.816a.9.9,0,0,1-.852-.607,1.312,1.312,0,0,1-.063-.413c-.006-.391,0-.781,0-1.193,0-.16,0-.322,0-.489v-.126h-.126c-.2,0-.4,0-.6.005s-.378,0-.563,0c-.254,0-.464,0-.66-.014a9.27,9.27,0,0,1-5.355-2.006,9.426,9.426,0,0,1-3.613-6.14A9.605,9.605,0,0,1,1896.369,198a11.937,11.937,0,0,1,1.991-.219c.4-.017.808-.025,1.26-.025.4,0,.83.006,1.34.02a9.472,9.472,0,0,1,7.37,3.64,9.224,9.224,0,0,1,1.98,4.511,9.664,9.664,0,0,1-5.255,10.088,2.252,2.252,0,0,0-.58.418c-.571.575-1.147,1.164-1.7,1.734-.431.441-.877.9-1.317,1.343A.989.989,0,0,1,1900.748,219.816Zm-1.07-4.344h.416a1.212,1.212,0,0,1,1.265,1.248c0,.073,0,.147,0,.22,0,.035,0,.07,0,.1v.069l.236.15.068-.1c.013-.019.025-.039.037-.059a.5.5,0,0,1,.06-.087l.411-.424c.429-.444.873-.9,1.322-1.34a4.379,4.379,0,0,1,.669-.5l.071-.046c.187-.122.386-.238.579-.351a7.139,7.139,0,0,0,1.079-.72,7.806,7.806,0,0,0,2.738-8.223,8.052,8.052,0,0,0-7.884-6.122c-.205,0-.411,0-.616-.006-.241,0-.491-.006-.736-.006-.359,0-.655.007-.932.022a10.769,10.769,0,0,0-1.988.247,8.065,8.065,0,0,0-6.108,7.159,8.08,8.08,0,0,0,7.891,8.762c.27,0,.535,0,.735,0Zm-.086-6.593a1.237,1.237,0,1,0-1.216-1.253A1.237,1.237,0,0,0,1899.592,208.88Zm-5.966-1.248a1.24,1.24,0,1,0,1.242-1.226A1.237,1.237,0,0,0,1893.626,207.632Zm9.495.008a1.24,1.24,0,0,0,2.481.016,1.24,1.24,0,1,0-2.481-.016Z" transform="translate(-1888.803 -197.757)" fill="#606060"/>
</svg>
