<svg xmlns="http://www.w3.org/2000/svg" width="22.427" height="23.023" viewBox="0 0 22.427 23.023">
  <path id="Path_54309" data-name="Path 54309" d="M-231.662,713.182a.917.917,0,0,0-.919-.561h-5.355c0-.464,0-.905,0-1.346a1.457,1.457,0,0,0-.524-1.173,4.674,4.674,0,0,0-.78-.419h-7.213c-.011.01-.019.026-.032.03a1.6,1.6,0,0,0-1.268,1.726c0,.388,0,.776,0,1.173-.086,0-.145.01-.2.01h-2.862c-.766,0-1.532,0-2.3,0a.856.856,0,0,0-.9.837.846.846,0,0,0,.9.839c.18,0,.361,0,.541,0h18.793c.5,0,.993.016,1.486-.023A.782.782,0,0,0-231.662,713.182Zm-7.956-.582h-6.451v-1.236h6.451Zm4.613,8.48q0,1.127,0,2.253h0q0,3.234,0,6.468a2.8,2.8,0,0,1-2.817,2.891q-5.015.024-10.03,0a2.771,2.771,0,0,1-2.769-2.3,4.986,4.986,0,0,1-.054-.965q0-6.265,0-12.53a.932.932,0,0,1,.481-.962.813.813,0,0,1,1.175.742c.007,1.623,0,3.245,0,4.868q0,4.147,0,8.293a1.2,1.2,0,0,0,1.264,1.255q4.959,0,9.917,0a1.173,1.173,0,0,0,1.218-1.22q0-6.524,0-13.048a.851.851,0,0,1,.633-.919.767.767,0,0,1,.977.761Q-235,718.872-235.005,721.08Zm-6.173,4.211q0-1.013,0-2.027,0-2.545,0-5.091a1.606,1.606,0,0,1,.053-.465.771.771,0,0,1,.762-.521.8.8,0,0,1,.71.6,1.5,1.5,0,0,1,.035.334q0,5.158,0,10.317a1.358,1.358,0,0,1-.065.441.766.766,0,0,1-.82.5.814.814,0,0,1-.673-.813C-241.18,727.469-241.178,726.38-241.178,725.291Zm-3.25-3.8q0,.9,0,1.8,0,2.59,0,5.181a1.24,1.24,0,0,1-.05.375.778.778,0,0,1-.76.526.8.8,0,0,1-.717-.616,1.475,1.475,0,0,1-.033-.312q0-5.192,0-10.384a.816.816,0,0,1,.57-.848.792.792,0,0,1,.99.785C-244.425,719.165-244.428,720.329-244.428,721.493Z" transform="translate(254.022 -709.681)" fill="#d92626"/>
</svg>
