<svg xmlns="http://www.w3.org/2000/svg" width="23.001" height="17.974" viewBox="0 0 23.001 17.974">
  <path id="Path_54151" data-name="Path 54151" d="M1063.253,1028.7a8.515,8.515,0,0,1-1.007-.054,2.073,2.073,0,0,1-1.77-1.9c-.088-.958-.19-1.93-.288-2.87q-.067-.643-.133-1.285-.021-.208-.041-.415c-.035-.359-.072-.73-.117-1.095a.537.537,0,0,0-.286-.386,2.1,2.1,0,0,1-1.33-2.061q0-.43,0-.859,0-.292,0-.584a2.107,2.107,0,0,1,2.147-2.15h2.3c.571,0,1.244,0,1.908,0a1.14,1.14,0,0,0,.549-.147c1.394-.807,2.808-1.632,4.176-2.43l2.427-1.414a2.292,2.292,0,0,1,1.147-.321,2.126,2.126,0,0,1,2.072,1.791,1.557,1.557,0,0,1,.016.273q0,.207,0,.414c0,.464.006.943-.006,1.413a.554.554,0,0,0,.413.608,2.892,2.892,0,0,1-.036,5.438.5.5,0,0,0-.376.533c.008.441.007.892.005,1.327q0,.239,0,.477a2.1,2.1,0,0,1-2.1,2.151h0a2.176,2.176,0,0,1-1.088-.3c-.812-.463-1.633-.944-2.426-1.41l-1.115-.653-.637-.371c-.821-.479-1.67-.974-2.508-1.457a1.35,1.35,0,0,0-.321-.121c-.041-.012-.08-.022-.116-.034l-.161-.054-.22.295.281.937q.285.952.57,1.9c.066.22.135.443.2.658.16.514.325,1.045.448,1.572a2.079,2.079,0,0,1-.369,1.736,2.106,2.106,0,0,1-1.594.83C1063.643,1028.7,1063.442,1028.7,1063.253,1028.7Zm-2.228-7.6c.008.1.016.193.023.283.015.187.029.363.047.539q.1.993.2,1.986.138,1.348.274,2.7a.993.993,0,0,0,1.039.95l.593,0,.534,0a1.046,1.046,0,0,0,.848-.4.992.992,0,0,0,.141-.879c-.478-1.64-.951-3.217-1.52-5.109a.453.453,0,0,0-.373-.312c-.307-.007-.607-.008-.859-.008H1061Zm11.916-9.306a1.239,1.239,0,0,0-.621.181l-2.257,1.327c-1.356.8-2.758,1.622-4.139,2.429a.557.557,0,0,0-.293.534c.006,1.2.006,2.275,0,3.3a.574.574,0,0,0,.312.549c2.008,1.174,4.078,2.392,6.33,3.723a1.269,1.269,0,0,0,.654.207.969.969,0,0,0,.476-.128,1.1,1.1,0,0,0,.528-1.033c0-1.23,0-2.48,0-3.689,0-.424,0-2.71,0-2.71q0-1.786,0-3.573A1.021,1.021,0,0,0,1072.94,1011.8Zm-10.924,4.355-1.544,0a1.012,1.012,0,0,0-1.093,1c-.014.529-.014,1.067,0,1.6a.98.98,0,0,0,.954.98c.508,0,1.065,0,1.751,0h2.436v-3.549l-.216-.017-.054-.005a1.316,1.316,0,0,0-.138-.009h-2.095Zm13.018,3.537.366-.246a1.8,1.8,0,0,0,0-3.064l-.362-.235Zm3.52-3.948a.528.528,0,0,0,.141-.033l.131-.073c.449-.25.914-.508,1.351-.786a.525.525,0,0,0,.144-.718.565.565,0,0,0-.473-.278.443.443,0,0,0-.209.051c-.464.244-.948.524-1.481.855a.506.506,0,0,0-.2.588.568.568,0,0,0,.508.408Zm1.307,6.26a.556.556,0,0,0,.538-.55.508.508,0,0,0-.235-.456c-.392-.238-.911-.547-1.444-.834a.473.473,0,0,0-.227-.057.568.568,0,0,0-.479.274.529.529,0,0,0,.142.719c.565.355,1.035.625,1.479.849a.494.494,0,0,0,.225.055Zm.1-3.519c.269,0,.539,0,.8-.008a.533.533,0,0,0,.514-.546.526.526,0,0,0-.511-.547c-.091,0-.188-.005-.307-.005l-.255,0-.259,0h-.5c-.115,0-.21,0-.3,0a.548.548,0,0,0-.01,1.095c.276.005.553.008.823.008Z" transform="translate(-1058.279 -1010.726)" fill="#606060"/>
</svg>
