<svg xmlns="http://www.w3.org/2000/svg" width="24.369" height="24.362" viewBox="0 0 24.369 24.362">
  <path id="Path_53996" data-name="Path 53996" d="M1821.261-1011.67a4.828,4.828,0,0,1,3.292-5.712,4.7,4.7,0,0,1,5.461,2.547,4.53,4.53,0,0,1-1.55,5.745,4.515,4.515,0,0,1-6.315-.912l-2.645,1.336q-1.968.994-3.938,1.985c-.143.072-.23.128-.191.323a4.262,4.262,0,0,1-.04,2.193l6.786,3.422c.272-.26.516-.528.794-.754a4.506,4.506,0,0,1,6.688.975,4.649,4.649,0,0,1-2.79,7.2,4.607,4.607,0,0,1-4.824-1.937,4.34,4.34,0,0,1-.769-3.6.311.311,0,0,0-.109-.271c-2.211-1.126-4.428-2.242-6.666-3.37a4.66,4.66,0,0,1-4.057,1.785,4.6,4.6,0,0,1-3.129-1.707,4.454,4.454,0,0,1,.41-6.35,4.528,4.528,0,0,1,6.8.524Zm7.347-1.192a2.678,2.678,0,0,0-2.772-2.824,2.68,2.68,0,0,0-2.846,2.81,2.676,2.676,0,0,0,2.758,2.809A2.679,2.679,0,0,0,1828.609-1012.863Zm-2.81,12.169a2.674,2.674,0,0,0-2.806,2.818,2.677,2.677,0,0,0,2.8,2.8,2.684,2.684,0,0,0,2.823-2.835A2.678,2.678,0,0,0,1825.8-1000.693Zm-14.986-1.876a2.68,2.68,0,0,0,2.809-2.789,2.684,2.684,0,0,0-2.825-2.832,2.682,2.682,0,0,0-2.794,2.8A2.681,2.681,0,0,0,1810.813-1002.57Z" transform="translate(-1806.122 1017.559)" fill="#fff"/>
</svg>
